<?xml version="1.0" encoding="UTF-8" standalone="no"?>
<!-- Created with Inkscape (http://www.inkscape.org/) -->

<svg
   width="209.09361mm"
   height="215.02933mm"
   viewBox="0 0 209.09361 215.02933"
   version="1.1"
   id="svg1"
   xml:space="preserve"
   inkscape:export-filename="bitmap.svg"
   inkscape:export-xdpi="96"
   inkscape:export-ydpi="96"
   xmlns:inkscape="http://www.inkscape.org/namespaces/inkscape"
   xmlns:sodipodi="http://sodipodi.sourceforge.net/DTD/sodipodi-0.dtd"
   xmlns="http://www.w3.org/2000/svg"
   xmlns:svg="http://www.w3.org/2000/svg"><sodipodi:namedview
     id="namedview1"
     pagecolor="#ffffff"
     bordercolor="#000000"
     borderopacity="0.25"
     inkscape:showpageshadow="2"
     inkscape:pageopacity="0.0"
     inkscape:pagecheckerboard="0"
     inkscape:deskcolor="#d1d1d1"
     inkscape:document-units="mm" /><defs
     id="defs1" /><g
     inkscape:label="Layer 1"
     inkscape:groupmode="layer"
     id="layer1"
     transform="translate(-0.55919689,0.24086246)"><path
       style="fill:#000000;stroke-width:1.56542"
       d="m 61.013848,214.2875 c -1.594611,-0.34897 -4.576741,-1.45026 -6.626957,-2.44732 -11.062332,-5.37991 -18.408013,-16.8452 -19.137905,-29.87085 -0.89919,-16.04693 7.524903,-30.14354 23.90103,-39.99522 1.708513,-1.02781 5.249793,-3.04675 7.869512,-4.4865 12.788641,-7.02844 18.579292,-12.39206 22.948161,-21.25586 2.429348,-4.92877 3.83455,-10.49009 4.384984,-17.354218 1.11527,-13.908016 1.62386,-16.822473 3.666189,-21.008946 l 1.09999,-2.254804 0.255947,4.325733 c 0.314963,5.323236 1.851111,11.797544 4.262301,17.964167 4.18381,10.700108 9.03161,18.138058 23.63549,36.263778 1.37969,1.7124 2.93149,3.71042 3.44847,4.44007 l 0.93996,1.32661 -3.84554,-1.81243 c -5.60983,-2.64396 -7.87406,-3.14983 -15.26528,-3.41051 -7.05799,-0.24893 -10.54289,0.21724 -16.53774,2.21221 -6.429693,2.13967 -17.322209,7.9357 -27.1291,14.43568 -11.918241,7.89938 -16.733954,13.55113 -19.230328,22.56886 -2.159293,7.80007 -0.0025,16.70616 5.479896,22.62777 2.960604,3.1978 5.99745,4.79501 11.220078,5.90116 4.54887,0.96344 5.711896,1.55319 6.897519,3.49767 1.633984,2.67981 0.568854,6.12814 -2.43471,7.88231 -1.829048,1.06823 -6.085497,1.26391 -9.801967,0.45064 z m 75.582262,-3.84254 c -1.75789,-0.9354 -3.29099,-3.47608 -3.30019,-5.46919 -0.005,-0.96831 0.50394,-2.31825 1.4819,-3.93476 4.03432,-6.66835 5.14059,-10.17679 5.13212,-16.27601 -0.003,-2.48505 -0.28236,-5.58087 -0.63916,-7.09478 -2.20008,-9.33474 -10.28472,-17.93355 -20.1078,-21.38666 -4.05722,-1.42622 -10.47608,-1.78373 -14.60823,-0.81361 -5.960033,1.39926 -12.159576,5.58259 -15.170306,10.2366 -1.886398,2.91601 -3.107927,7.73501 -2.775973,10.95134 0.674752,6.53773 5.579363,11.59648 11.721095,12.08948 3.506574,0.28148 5.954434,-0.45618 8.266094,-2.49099 4.50323,-3.9639 5.05648,-9.13528 1.41937,-13.26727 -2.97689,-3.38191 -3.36925,-5.46491 -1.5882,-8.43145 1.55474,-2.58963 5.57184,-3.389 8.91002,-1.77301 2.18266,1.05659 5.10729,4.80544 6.35947,8.15167 3.34371,8.93542 1.37443,17.63895 -5.59589,24.7319 -4.2747,4.3499 -9.41517,6.24391 -16.774488,6.18058 -3.62472,-0.0312 -4.933554,-0.23453 -7.859564,-1.22106 -6.629812,-2.2353 -12.134847,-6.99969 -15.49574,-13.41099 -2.019173,-3.8518 -2.827521,-7.3447 -2.835305,-12.25142 -0.02058,-12.97777 8.571658,-24.91708 21.70619,-30.16173 5.694727,-2.27394 7.429687,-2.55413 15.667407,-2.53039 7.15852,0.0207 7.90756,0.0974 11.39008,1.16664 9.44594,2.90029 18.53455,9.50844 23.90061,17.37767 5.9482,8.7229 8.45757,18.06705 7.44938,27.73917 -0.60092,5.7649 -1.86195,9.78366 -4.66585,14.86961 -2.24029,4.0636 -4.00248,6.23235 -5.85077,7.20066 -1.5575,0.81596 -4.42039,0.73105 -6.13627,-0.182 z m 37.70074,-36.76517 c -8.66626,-1.89356 -17.1815,-8.89787 -24.64228,-20.26975 -7.06081,-10.76225 -13.24925,-19.9173 -15.28872,-22.61778 -1.26175,-1.67068 -5.18084,-6.85846 -8.70912,-11.5284 -3.52827,-4.66992 -7.56548,-10.41682 -8.97158,-12.77089 -2.78254,-4.6585 -6.4242,-12.780269 -7.64512,-17.050414 -0.94738,-3.31339 -1.06031,-9.998059 -0.22392,-13.253904 l 0.58519,-2.278019 0.70524,4.141843 c 1.10329,6.47952 4.42573,14.584998 8.74527,21.335133 2.22919,3.483551 8.07618,10.602611 11.47317,13.969271 6.97366,6.9114 17.08183,12.02503 26.00819,13.1573 l 2.12773,0.2699 -1.22873,2.38244 c -1.60215,3.10651 -1.93506,6.4639 -0.97012,9.78321 2.28441,7.85809 9.79031,17.02624 16.64329,20.32912 2.80283,1.35087 3.73805,1.59006 6.77246,1.73222 4.37685,0.20505 7.37269,-0.78411 9.94992,-3.28521 3.75495,-3.64408 5.09409,-9.89806 2.97852,-13.91003 -2.18691,-4.14721 -5.83496,-6.62803 -10.34837,-7.0373 -2.74442,-0.24885 -5.18633,0.59 -7.89385,2.71174 -2.29333,1.79715 -3.28152,2.20861 -5.30439,2.20861 -2.21133,0 -4.24118,-1.35793 -5.26967,-3.52527 -2.49561,-5.25914 2.61979,-11.33615 11.56914,-13.74398 3.2472,-0.87366 9.20252,-0.87299 12.56928,10e-4 11.26924,2.92679 19.05616,12.76654 19.0795,24.10934 0.006,3.404 -0.82132,7.79219 -1.98109,10.49528 -1.1009,2.56585 -4.9754,7.60842 -7.39129,9.6196 -2.62341,2.18393 -7.10603,4.30338 -10.72134,5.0692 -3.56302,0.75473 -9.04757,0.73532 -12.61731,-0.0446 z M 34.488567,149.29811 C 20.049725,145.02607 9.839179,136.60875 3.8337158,124.02699 c -2.84480072,-5.96 -3.27705781,-8.065 -3.27450774,-15.94612 0.002192,-6.59228 0.0491543,-6.97324 1.32921464,-10.768792 2.9055752,-8.615462 8.0908068,-14.952857 15.0426953,-18.385188 4.969261,-2.453472 8.872003,-3.304686 13.86764,-3.024663 11.641035,0.652546 21.548245,8.808337 24.467987,20.142469 0.543092,2.108233 0.940342,2.924116 1.423746,2.924116 1.549635,0 5.768424,-2.626623 8.428066,-5.247314 3.883271,-3.82641 5.850751,-6.545424 8.616886,-11.908344 1.301835,-2.523978 2.373538,-4.469846 2.381562,-4.324167 0.0492,0.893433 -1.464559,7.888745 -2.541904,11.746479 -1.581194,5.661915 -3.717038,9.972996 -6.900631,13.928534 -2.743901,3.40924 -4.997572,5.18775 -8.869984,6.99989 -8.049853,3.76697 -16.633543,1.92974 -19.81419,-4.24098 -1.512953,-2.93527 -0.658825,-6.910329 1.774417,-8.258049 0.524743,-0.290636 1.84893,-0.628705 2.942638,-0.751246 l 1.988558,-0.222822 -1.251466,-2.499417 c -0.688306,-1.374661 -1.795742,-3.020859 -2.460969,-3.658174 -1.160136,-1.111482 -1.259469,-1.132944 -2.433558,-0.52581 -1.143964,0.591573 -1.396537,0.563317 -3.860312,-0.431838 -2.234801,-0.902685 -3.039119,-1.027215 -5.281685,-0.817808 -6.151126,0.574401 -11.957929,5.037875 -14.139423,10.868434 -3.511364,9.38496 -0.851541,19.45625 7.335802,27.77666 6.037208,6.13532 15.463136,10.51825 24.202408,11.25379 l 3.338778,0.28101 -2.264406,1.55724 c -2.5622,1.76201 -7.925036,6.97496 -8.943815,8.69384 -0.3713,0.62645 -0.774692,1.12909 -0.896427,1.11696 -0.121727,-0.0125 -1.720256,-0.46552 -3.552269,-1.00757 z M 44.86064,130.69449 c -3.715035,-0.85136 -8.9231,-2.97296 -11.656998,-4.74871 -1.333907,-0.86642 -3.636775,-2.86706 -5.117487,-4.4459 -8.015513,-8.54669 -8.798985,-19.10295 -1.793287,-24.162223 1.501813,-1.084557 4.247642,-2.265324 4.554449,-1.958517 0.07794,0.07796 -0.185254,0.777718 -0.584895,1.55506 -0.557486,1.084353 -0.726004,2.425623 -0.723978,5.76227 0.0023,3.90439 0.119347,4.58705 1.144396,6.67832 2.256031,4.60267 6.515971,8.18744 11.457228,9.64134 3.229142,0.95012 10.217838,0.88214 14.207393,-0.13822 9.207292,-2.35484 17.511506,-9.76726 22.122204,-19.746514 0.773725,-1.674626 2.357548,-5.704573 3.519608,-8.955455 2.132926,-5.966891 3.857637,-9.775127 5.115436,-11.29509 0.377019,-0.455601 0.539814,-0.550637 0.361756,-0.21116 -0.178052,0.339462 -0.454025,5.558191 -0.613273,11.59717 -0.356143,13.505719 -0.777113,15.937559 -3.836609,22.162959 -2.528745,5.14545 -5.140189,8.57839 -8.758855,11.51419 -2.99189,2.42731 -8.94646,5.40287 -12.622603,6.30765 -3.740921,0.92073 -13.55817,1.17989 -16.774485,0.44283 z m 110.59379,-12.11796 c -12.09344,-2.59107 -23.72314,-12.29367 -31.94335,-26.650227 -7.09792,-12.396459 -7.25177,-22.219863 -0.41995,-26.813237 3.12309,-2.099827 5.4152,-2.592528 12.06091,-2.592528 6.95588,0 9.86104,-0.466324 13.4135,-2.153098 3.12998,-1.486181 7.17685,-5.353919 8.8362,-8.445097 2.23015,-4.154526 2.95001,-9.4813 1.93737,-14.336052 -0.50451,-2.418703 -3.09711,-8.283873 -4.58605,-10.374903 l -0.95062,-1.335008 1.26873,0.903406 c 0.6978,0.49688 2.50745,2.216529 4.02143,3.821432 3.02061,3.201994 5.95621,8.594516 7.10824,13.057396 1.48542,5.754372 0.34923,13.585744 -2.70702,18.658623 -2.91499,4.838377 -8.88459,9.278339 -14.25883,10.605145 -1.34453,0.331948 -4.80158,0.482213 -9.85789,0.428472 l -7.7872,-0.08281 -1.22132,1.221327 c -1.65876,1.658754 -1.63368,3.170122 0.0747,4.50416 1.24235,0.970108 10.25015,2.572694 14.48025,2.576185 11.39544,0.0094 20.49211,-5.788636 25.66283,-16.35701 2.67142,-5.460116 3.432,-8.730614 3.41943,-14.703563 -0.0125,-6.001114 -0.78235,-9.3071 -3.43668,-14.760704 -5.51537,-11.331893 -16.22143,-19.561713 -29.06387,-22.34159 -4.82967,-1.045437 -12.70536,-1.23155 -17.12115,-0.404584 -4.71268,0.882554 -10.34043,2.750432 -13.86148,4.600684 -3.97188,2.087178 -11.010979,7.562886 -13.95283,10.853922 -2.730379,3.054469 -6.256447,8.827044 -7.623234,12.480146 -2.023147,5.407331 -3.995748,15.674113 -3.50307,18.23239 0.08607,0.446913 -0.294498,1.198629 -0.888833,1.755684 -1.887822,1.769382 -5.099038,6.42819 -6.420909,9.315425 l -1.301025,2.841697 -1.009549,-2.197181 c -0.555251,-1.208444 -1.383585,-4.00418 -1.840741,-6.212772 -1.091388,-5.272611 -0.874283,-15.418492 0.441972,-20.654428 1.751122,-6.965803 4.539421,-13.292961 8.5633,-19.43172 C 85.288389,21.076167 93.972275,12.500186 97.837665,9.9206508 104.17858,5.6890779 112.97778,2.0804651 120.7517,0.52340154 c 5.54358,-1.11032315 16.73268,-0.9929634 22.46623,0.23565877 5.82905,1.24908219 8.49439,2.16847069 13.88674,4.79011579 25.02906,12.1685959 36.71202,41.6513009 25.83729,65.2021359 -2.18784,4.738066 -6.38924,10.904517 -9.59349,14.080463 -4.78979,4.747458 -10.9476,7.975423 -17.99426,9.432706 -3.82149,0.790304 -13.2186,0.586079 -16.57723,-0.360266 -1.19595,-0.336989 -2.17447,-0.474981 -2.17447,-0.306667 0,0.47221 5.25472,5.277463 7.90302,7.227022 3.24815,2.39116 8.62674,4.98666 12.59914,6.07987 4.82576,1.32806 13.93585,1.32729 18.61488,-0.002 10.95971,-3.11261 18.64145,-11.089664 20.52291,-21.311938 0.75017,-4.075672 0.40521,-6.252424 -1.64292,-10.367482 -1.47618,-2.965882 -1.74157,-3.854792 -1.55844,-5.220091 0.30829,-2.298416 1.64532,-3.980135 3.82672,-4.813221 3.65734,-1.396749 6.88946,0.116311 9.43458,4.41684 2.63939,4.459718 3.41299,7.608817 3.34653,13.622749 -0.072,6.512456 -0.99441,10.249497 -3.97133,16.08854 -3.71591,7.288573 -8.56254,12.551033 -15.07166,16.364823 -2.15529,1.26281 -2.72296,1.42946 -3.80864,1.1181 -4.45285,-1.27705 -11.04447,-0.7986 -17.18711,1.24755 -3.03211,1.01003 -4.29024,1.20937 -7.45533,1.1813 -2.0942,-0.0186 -5.10943,-0.31268 -6.70049,-0.65357 z M 51.484707,76.183972 c -0.874469,-1.414923 -8.319561,-5.507831 -12.381151,-6.80649 -0.763637,-0.244175 -0.761877,-0.278786 0.05961,-1.172706 2.876225,-3.129797 8.40174,-13.198863 10.278878,-18.731052 1.364695,-4.02195 1.820084,-10.203226 1.017445,-13.810383 -1.492772,-6.708698 -6.310666,-11.846118 -12.115719,-12.919247 -2.984211,-0.551655 -5.669791,0.03538 -8.398425,1.835787 -4.306978,2.841853 -5.728125,6.903797 -3.969125,11.34462 1.0813,2.729878 1.090821,4.065591 0.04125,5.78704 -2.662127,4.36623 -8.576127,3.828789 -11.804602,-1.072753 -1.219922,-1.852131 -2.27992,-5.766987 -2.27992,-8.420379 0,-7.911366 5.279602,-16.228817 12.587758,-19.830699 15.242608,-7.5124328 32.227999,0.251799 37.944654,17.344964 1.819142,5.439359 2.352341,10.290354 1.702981,15.493554 -0.709404,5.68432 -1.67465,8.573167 -5.454793,16.325423 -1.795137,3.681452 -3.949975,8.434217 -4.788528,10.56172 -1.684927,4.274841 -1.994715,4.791588 -2.440314,4.070601 z M 105.66237,65.461216 c -3.05768,-1.921118 -3.42365,-5.795414 -0.77658,-8.221272 1.21328,-1.111889 1.80166,-1.346358 3.37869,-1.346358 3.38616,0 5.55794,2.090842 5.55794,5.350851 0,1.349832 -0.28414,2.012492 -1.3718,3.199348 -1.145,1.249396 -1.70991,1.526115 -3.41702,1.673704 -1.55359,0.134313 -2.36399,-0.02348 -3.37123,-0.656273 z"
       id="path1" /></g></svg>
