<?xml version="1.0" encoding="UTF-8" standalone="no"?>
<!-- Created with Inkscape (http://www.inkscape.org/) -->

<svg
   version="1.1"
   id="svg1"
   width="3050.209"
   height="2278.209"
   viewBox="0 0 3050.209 2278.209"
   xmlns="http://www.w3.org/2000/svg"
   xmlns:svg="http://www.w3.org/2000/svg">
  <defs
     id="defs1" />
  <g
     id="g1"
     transform="translate(-165.54551,-164.1908)">
    <g
       id="g2"
       transform="translate(-0.09715845,4.0424486)">
      <path
         style="fill:#f3dd99"
         d="m 1621.6667,2437.7476 c 1.2833,-0.3354 3.3833,-0.3354 4.6666,0 1.2834,0.3353 0.2334,0.6097 -2.3333,0.6097 -2.5667,0 -3.6167,-0.2744 -2.3333,-0.6097 z m 19.3856,-0.07 c 4.612,-0.2611 11.812,-0.2589 16,0 4.1879,0.2638 0.4144,0.4774 -8.3856,0.4747 -8.8,0 -12.2265,-0.2184 -7.6144,-0.4795 z M 1607,2436.4142 c 1.2833,-0.3353 3.3833,-0.3353 4.6667,0 1.2833,0.3354 0.2333,0.6098 -2.3334,0.6098 -2.5666,0 -3.6166,-0.2744 -2.3333,-0.6098 z m 89.3333,-0.066 c 4.2167,-0.2646 11.1167,-0.2646 15.3334,0 4.2166,0.2646 0.7666,0.4811 -7.6667,0.4811 -8.4333,0 -11.8833,-0.2165 -7.6667,-0.4811 z m -102.6666,-1.2671 c 1.2833,-0.3354 3.3833,-0.3354 4.6666,0 1.2834,0.3354 0.2334,0.6098 -2.3333,0.6098 -2.5667,0 -3.6167,-0.2744 -2.3333,-0.6098 z m 149.3587,0 c 1.2973,-0.338 3.0973,-0.3158 4,0.049 0.9027,0.3652 -0.1587,0.6418 -2.3587,0.6147 -2.2,-0.027 -2.9386,-0.326 -1.6413,-0.6641 z M 1579,2433.7476 c 1.2833,-0.3354 3.3833,-0.3354 4.6667,0 1.2833,0.3353 0.2333,0.6097 -2.3334,0.6097 -2.5666,0 -3.6166,-0.2744 -2.3333,-0.6097 z m 177.3587,0 c 1.2973,-0.3381 3.0973,-0.3158 4,0.049 0.9027,0.3652 -0.1587,0.6418 -2.3587,0.6146 -2.2,-0.027 -2.9386,-0.326 -1.6413,-0.664 z m -190.6667,-1.3334 c 1.2973,-0.338 3.0973,-0.3158 4,0.05 0.9028,0.3652 -0.1587,0.6418 -2.3587,0.6146 -2.2,-0.027 -2.9385,-0.326 -1.6413,-0.6641 z m 202.6667,0 c 1.2973,-0.338 3.0973,-0.3158 4,0.05 0.9027,0.3652 -0.1587,0.6418 -2.3587,0.6146 -2.2,-0.027 -2.9386,-0.326 -1.6413,-0.6641 z M 1551,2431.0809 c 1.2833,-0.3354 3.3833,-0.3354 4.6667,0 1.2833,0.3354 0.2333,0.6098 -2.3334,0.6098 -2.5666,0 -3.6166,-0.2744 -2.3333,-0.6098 z m 230.692,0 c 1.2973,-0.338 3.0973,-0.3158 4,0.049 0.9028,0.3652 -0.1587,0.6418 -2.3587,0.6147 -2.2,-0.027 -2.9385,-0.326 -1.6413,-0.6641 z m -245.3587,-1.3284 c 1.2834,-0.3354 3.3834,-0.3354 4.6667,0 1.2833,0.3353 0.2333,0.6097 -2.3333,0.6097 -2.5667,0 -3.6167,-0.2744 -2.3334,-0.6097 z m 258.6921,0 c 1.2973,-0.3381 3.0973,-0.3158 4,0.049 0.9027,0.3652 -0.1587,0.6418 -2.3587,0.6146 -2.2,-0.027 -2.9386,-0.326 -1.6413,-0.664 z m -272,-1.3334 c 1.2973,-0.338 3.0973,-0.3158 4,0.05 0.9027,0.3652 -0.1587,0.6418 -2.3587,0.6146 -2.2,-0.027 -2.9386,-0.326 -1.6413,-0.6641 z m 284,0 c 1.2973,-0.338 3.0973,-0.3158 4,0.05 0.9027,0.3652 -0.1587,0.6418 -2.3587,0.6146 -2.2,-0.027 -2.9386,-0.326 -1.6413,-0.6641 z M 1513,2427.117 c 0.9167,-0.3699 2.4167,-0.3699 3.3333,0 0.9167,0.3698 0.1667,0.6725 -1.6666,0.6725 -1.8334,0 -2.5834,-0.3027 -1.6667,-0.6725 z m 306.0254,-0.041 c 1.2973,-0.338 3.0973,-0.3158 4,0.049 0.9027,0.3652 -0.1587,0.6418 -2.3587,0.6147 -2.2,-0.027 -2.9386,-0.326 -1.6413,-0.6641 z m -315.3587,-1.2924 c 0.9166,-0.3699 2.4166,-0.3699 3.3333,0 0.9167,0.3699 0.1667,0.6725 -1.6667,0.6725 -1.8333,0 -2.5833,-0.3026 -1.6666,-0.6725 z m 326.6666,0 c 0.9167,-0.3699 2.4167,-0.3699 3.3334,0 0.9166,0.3699 0.1666,0.6725 -1.6667,0.6725 -1.8333,0 -2.5833,-0.3026 -1.6667,-0.6725 z m -336,-1.3333 c 0.9167,-0.3699 2.4167,-0.3699 3.3334,0 0.9166,0.3699 0.1666,0.6725 -1.6667,0.6725 -1.8333,0 -2.5833,-0.3026 -1.6667,-0.6725 z m 345.3334,0 c 0.9166,-0.3699 2.4166,-0.3699 3.3333,0 0.9167,0.3699 0.1667,0.6725 -1.6667,0.6725 -1.8333,0 -2.5833,-0.3026 -1.6666,-0.6725 z m -354.5834,-1.3611 c 0.9625,-0.3852 2.1125,-0.3378 2.5556,0.1052 0.443,0.4431 -0.3445,0.7582 -1.75,0.7003 -1.5533,-0.064 -1.8692,-0.3799 -0.8056,-0.8055 z M 1849,2423.117 c 0.9167,-0.3699 2.4167,-0.3699 3.3333,0 0.9167,0.3698 0.1667,0.6725 -1.6666,0.6725 -1.8334,0 -2.5834,-0.3027 -1.6667,-0.6725 z m -374.6667,-1.3334 c 0.9167,-0.3699 2.4167,-0.3699 3.3334,0 0.9166,0.3699 0.1666,0.6725 -1.6667,0.6725 -1.8333,0 -2.5833,-0.3026 -1.6667,-0.6725 z m 384,0 c 0.9167,-0.3699 2.4167,-0.3699 3.3334,0 0.9166,0.3699 0.1666,0.6725 -1.6667,0.6725 -1.8333,0 -2.5833,-0.3026 -1.6667,-0.6725 z M 1465,2420.4503 c 0.9167,-0.3699 2.4167,-0.3699 3.3333,0 0.9167,0.3699 0.1667,0.6725 -1.6666,0.6725 -1.8334,0 -2.5834,-0.3026 -1.6667,-0.6725 z m 402.6667,0 c 0.9166,-0.3699 2.4166,-0.3699 3.3333,0 0.9167,0.3699 0.1667,0.6725 -1.6667,0.6725 -1.8333,0 -2.5833,-0.3026 -1.6666,-0.6725 z m -412,-1.3333 c 0.9166,-0.3699 2.4166,-0.3699 3.3333,0 0.9167,0.3698 0.1667,0.6725 -1.6667,0.6725 -1.8333,0 -2.5833,-0.3027 -1.6666,-0.6725 z m 421.3333,0 c 0.9167,-0.3699 2.4167,-0.3699 3.3333,0 0.9167,0.3698 0.1667,0.6725 -1.6666,0.6725 -1.8334,0 -2.5834,-0.3027 -1.6667,-0.6725 z m -430.6667,-1.3334 c 0.9167,-0.3699 2.4167,-0.3699 3.3334,0 0.9166,0.3699 0.1666,0.6725 -1.6667,0.6725 -1.8333,0 -2.5833,-0.3026 -1.6667,-0.6725 z m 440,0 c 0.9167,-0.3699 2.4167,-0.3699 3.3334,0 0.9166,0.3699 0.1666,0.6725 -1.6667,0.6725 -1.8333,0 -2.5833,-0.3026 -1.6667,-0.6725 z M 1437,2416.4503 c 0.9167,-0.3699 2.4167,-0.3699 3.3333,0 0.9167,0.3699 0.1667,0.6725 -1.6666,0.6725 -1.8334,0 -2.5834,-0.3026 -1.6667,-0.6725 z m 458.6667,0 c 0.9166,-0.3699 2.4166,-0.3699 3.3333,0 0.9167,0.3699 0.1667,0.6725 -1.6667,0.6725 -1.8333,0 -2.5833,-0.3026 -1.6666,-0.6725 z M 1905,2415.117 c 0.9167,-0.3699 2.4167,-0.3699 3.3333,0 0.9167,0.3698 0.1667,0.6725 -1.6666,0.6725 -1.8334,0 -2.5834,-0.3027 -1.6667,-0.6725 z m -487.9167,-2.6945 c 0.9625,-0.3851 2.1125,-0.3378 2.5556,0.1053 0.443,0.443 -0.3445,0.7582 -1.75,0.7003 -1.5533,-0.064 -1.8692,-0.38 -0.8056,-0.8056 z m 501.3334,0 c 0.9625,-0.3851 2.1125,-0.3378 2.5555,0.1053 0.4431,0.443 -0.3444,0.7582 -1.75,0.7003 -1.5532,-0.064 -1.8692,-0.38 -0.8055,-0.8056 z m 5.3333,-1.3333 c 0.9625,-0.3852 2.1125,-0.3378 2.5556,0.1052 0.443,0.4431 -0.3445,0.7582 -1.75,0.7003 -1.5533,-0.064 -1.8692,-0.3799 -0.8056,-0.8055 z m 25.3333,-6.6667 c 0.9625,-0.3851 2.1125,-0.3378 2.5556,0.1053 0.443,0.443 -0.3445,0.7582 -1.75,0.7003 -1.5533,-0.064 -1.8692,-0.38 -0.8056,-0.8056 z m -592,-6.6667 c 0.9625,-0.3851 2.1125,-0.3377 2.5556,0.1053 0.443,0.4431 -0.3445,0.7582 -1.75,0.7003 -1.5533,-0.064 -1.8692,-0.3799 -0.8056,-0.8056 z m 617.3334,0 c 0.9625,-0.3851 2.1125,-0.3377 2.5555,0.1053 0.4431,0.4431 -0.3444,0.7582 -1.75,0.7003 -1.5532,-0.064 -1.8692,-0.3799 -0.8055,-0.8056 z m 5.3333,-1.3333 c 0.9625,-0.3851 2.1125,-0.3378 2.5556,0.1053 0.443,0.443 -0.3445,0.7582 -1.75,0.7003 -1.5533,-0.064 -1.8692,-0.38 -0.8056,-0.8056 z m 108.3611,-38.2662 c 1.3574,-1.247 19.8889,-10.1202 19.8889,-9.5232 0,0.7447 -18.0733,10.0336 -19.5223,10.0336 -0.5072,0 -0.6721,-0.2297 -0.3666,-0.5104 z m 94.5556,-47.993 c 0,-0.2769 1.05,-1.3269 2.3333,-2.3334 2.1147,-1.6585 2.1619,-1.6113 0.5034,0.5034 -1.7418,2.221 -2.8367,2.9273 -2.8367,1.83 z m 17.3333,-12 c 0,-0.2769 1.05,-1.3269 2.3333,-2.3334 2.1148,-1.6585 2.1619,-1.6113 0.5034,0.5034 -1.7418,2.221 -2.8367,2.9273 -2.8367,1.83 z m 17.3333,-12 c 0,-0.2769 1.05,-1.3269 2.3334,-2.3334 2.1147,-1.6585 2.1619,-1.6113 0.5034,0.5034 -1.7419,2.221 -2.8368,2.9273 -2.8368,1.83 z m 17.3334,-12 c 0,-0.2769 1.05,-1.3269 2.3333,-2.3334 2.1147,-1.6585 2.1619,-1.6113 0.5034,0.5034 -1.7418,2.221 -2.8367,2.9273 -2.8367,1.83 z m 16.6666,-12.83 c 1.3273,-1.4666 2.7133,-2.6666 3.08,-2.6666 0.3667,0 -0.4193,1.2 -1.7466,2.6666 -1.3273,1.4667 -2.7133,2.6667 -3.08,2.6667 -0.3667,0 0.4193,-1.2 1.7466,-2.6667 z m -1179.5034,-5 c -1.6585,-2.1147 -1.6113,-2.1619 0.5034,-0.5034 2.221,1.7419 2.9273,2.8368 1.83,2.8368 -0.2769,0 -1.3269,-1.05 -2.3334,-2.3334 z m 1187.5034,-1.6666 c 1.3273,-1.4667 2.7133,-2.6667 3.08,-2.6667 0.3667,0 -0.4193,1.2 -1.7466,2.6667 -1.3273,1.4666 -2.7133,2.6666 -3.08,2.6666 -0.3667,0 0.4193,-1.2 1.7466,-2.6666 z m -1192.8367,-2.3334 c -1.6585,-2.1147 -1.6113,-2.1619 0.5034,-0.5034 1.2833,1.0065 2.3333,2.0565 2.3333,2.3334 0,1.0973 -1.0949,0.391 -2.8367,-1.83 z m 1198.8367,-2.17 c 0,-0.2769 1.05,-1.3269 2.3334,-2.3334 2.1147,-1.6585 2.1619,-1.6113 0.5034,0.5034 -1.7419,2.221 -2.8368,2.9273 -2.8368,1.83 z M 1059.8299,2247 c -1.6585,-2.1147 -1.6113,-2.1619 0.5034,-0.5034 2.221,1.7418 2.9273,2.8367 1.83,2.8367 -0.2769,0 -1.3269,-1.05 -2.3334,-2.3333 z M 2274,2242.6667 c 1.3273,-1.4667 2.7133,-2.6667 3.08,-2.6667 0.3666,0 -0.4194,1.2 -1.7467,2.6667 -1.3273,1.4666 -2.7133,2.6666 -3.0799,2.6666 -0.3667,0 0.4193,-1.2 1.7466,-2.6666 z m -1220.8367,-1 c -1.6585,-2.1148 -1.6114,-2.1619 0.5034,-0.5034 2.221,1.7418 2.9273,2.8367 1.8299,2.8367 -0.2769,0 -1.3269,-1.05 -2.3333,-2.3333 z M 1047.2067,2237 c -2.54,-3 -2.54,-3 0.46,-0.46 1.65,1.397 3,2.747 3,3 0,1.067 -1.0731,0.2793 -3.46,-2.54 z M 2282,2236 c 1.3273,-1.4667 2.7133,-2.6667 3.08,-2.6667 0.3666,0 -0.4194,1.2 -1.7467,2.6667 -1.3273,1.4667 -2.7133,2.6667 -3.0799,2.6667 -0.3667,0 0.4193,-1.2 1.7466,-2.6667 z m -1240.8367,-3.6667 c -1.6585,-2.1147 -1.6114,-2.1619 0.5034,-0.5034 1.2833,1.0065 2.3333,2.0565 2.3333,2.3334 0,1.0973 -1.0949,0.391 -2.8367,-1.83 z m 1248.8367,-3 c 1.3273,-1.4666 2.7133,-2.6666 3.08,-2.6666 0.3666,0 -0.4194,1.2 -1.7467,2.6666 -1.3273,1.4667 -2.7133,2.6667 -3.0799,2.6667 -0.3667,0 0.4193,-1.2 1.7466,-2.6667 z M 1034.4966,2227 c -1.6585,-2.1147 -1.6113,-2.1619 0.5034,-0.5034 2.221,1.7418 2.9273,2.8367 1.8299,2.8367 -0.2768,0 -1.3268,-1.05 -2.3333,-2.3333 z M 2298,2222.6667 c 1.3273,-1.4667 2.7133,-2.6667 3.08,-2.6667 0.3666,0 -0.4194,1.2 -1.7467,2.6667 -1.3273,1.4666 -2.7133,2.6666 -3.0799,2.6666 -0.3667,0 0.4193,-1.2 1.7466,-2.6666 z m -1270.1701,-1 c -1.6585,-2.1148 -1.6113,-2.1619 0.5034,-0.5034 2.221,1.7418 2.9273,2.8367 1.83,2.8367 -0.2769,0 -1.3269,-1.05 -2.3334,-2.3333 z m -25.1784,-24 -21.98483,-22.3334 22.33333,21.9849 c 20.7486,20.4248 22.9362,22.6818 21.9848,22.6818 -0.1916,0 -10.2416,-10.05 -22.3333,-22.3333 z M 2304,2218.1633 c 0,-0.2769 1.05,-1.3269 2.3333,-2.3334 2.1148,-1.6585 2.1619,-1.6113 0.5034,0.5034 -1.7418,2.221 -2.8367,2.9273 -2.8367,1.83 z m 6.6667,-5.3334 c 0,-0.2768 1.05,-1.3268 2.3333,-2.3333 2.1147,-1.6585 2.1619,-1.6113 0.5034,0.5034 -1.7418,2.221 -2.8367,2.9273 -2.8367,1.8299 z m 14.6666,-16.1632 c 3.9833,-4.0334 7.5423,-7.3334 7.9089,-7.3334 0.3667,0 -2.5923,3.3 -6.5755,7.3334 -3.9833,4.0333 -7.5423,7.3333 -7.9089,7.3333 -0.3667,0 2.5923,-3.3 6.5755,-7.3333 z m 18.6667,-20 c 3.9832,-4.0334 7.5422,-7.3334 7.9089,-7.3334 0.3667,0 -2.5923,3.3 -6.5756,7.3334 -3.9832,4.0333 -7.5422,7.3333 -7.9089,7.3333 -0.3666,0 2.5924,-3.3 6.5756,-7.3333 z m -1367.46002,-6.3334 c -2.53998,-3 -2.53998,-3 0.46002,-0.46 2.81926,2.387 3.60699,3.46 2.53998,3.46 -0.25301,0 -1.60301,-1.35 -3,-3 z m -6.66666,-8 c -2.53999,-3 -2.53999,-3 0.46001,-0.46 2.81926,2.387 3.60699,3.46 2.53999,3.46 -0.25301,0 -1.60301,-1.35 -3,-3 z m 1392.12668,-5 c 3.6115,-3.6666 6.8664,-6.6666 7.2331,-6.6666 0.3667,0 -2.2882,3 -5.8998,6.6666 -3.6115,3.6667 -6.8664,6.6667 -7.2331,6.6667 -0.3666,0 2.2883,-3 5.8998,-6.6667 z m -1398.79335,-3 c -2.53998,-3 -2.53998,-3 0.46002,-0.46 1.65,1.397 3,2.747 3,3 0,1.067 -1.07306,0.2793 -3.46002,-2.54 z m -6.66667,-8 c -2.53998,-3 -2.53998,-3 0.46002,-0.46 1.65,1.397 3,2.747 3,3 0,1.067 -1.07306,0.2793 -3.46002,-2.54 z m 1416.12672,-1 c 1.3273,-1.4666 2.7133,-2.6666 3.0799,-2.6666 0.3667,0 -0.4193,1.2 -1.7466,2.6666 -1.3273,1.4667 -2.7133,2.6667 -3.08,2.6667 -0.3666,0 0.4194,-1.2 1.7467,-2.6667 z m -1422.79338,-7 c -2.53999,-3 -2.53999,-3 0.46001,-0.46 2.81926,2.387 3.60699,3.46 2.53999,3.46 -0.25301,0 -1.60301,-1.35 -3,-3 z m 1429.45998,-1 c 1.3273,-1.4666 2.7133,-2.6666 3.08,-2.6666 0.3667,0 -0.4193,1.2 -1.7466,2.6666 -1.3273,1.4667 -2.7133,2.6667 -3.08,2.6667 -0.3667,0 0.4193,-1.2 1.7466,-2.6667 z m -1436.12665,-7 c -2.53998,-3 -2.53998,-3 0.46002,-0.46 2.81926,2.387 3.60698,3.46 2.53998,3.46 -0.25301,0 -1.60301,-1.35 -3,-3 z m 1442.79335,-1 c 1.3273,-1.4666 2.7133,-2.6666 3.08,-2.6666 0.3666,0 -0.4194,1.2 -1.7467,2.6666 -1.3273,1.4667 -2.7133,2.6667 -3.0799,2.6667 -0.3667,0 0.4193,-1.2 1.7466,-2.6667 z m -1449.46002,-7 c -2.53998,-3 -2.53998,-3 0.46002,-0.46 2.81926,2.387 3.60699,3.46 2.53998,3.46 -0.25301,0 -1.60301,-1.35 -3,-3 z m 1456.12672,-1 c 1.3273,-1.4666 2.7133,-2.6666 3.0799,-2.6666 0.3667,0 -0.4193,1.2 -1.7466,2.6666 -1.3273,1.4667 -2.7133,2.6667 -3.08,2.6667 -0.3666,0 0.4194,-1.2 1.7467,-2.6667 z m -1460.83677,-5 c -1.6585,-2.1147 -1.61134,-2.1619 0.5034,-0.5034 2.221,1.7419 2.92731,2.8368 1.82993,2.8368 -0.27687,0 -1.32687,-1.05 -2.33333,-2.3334 z M 2400,2112.6667 c 1.7223,-1.8334 3.4315,-3.3334 3.7982,-3.3334 0.3666,0 -0.7425,1.5 -2.4649,3.3334 -1.7223,1.8333 -3.4315,3.3333 -3.7981,3.3333 -0.3667,0 0.7425,-1.5 2.4648,-3.3333 z m 7.3333,-8.6667 c 1.3273,-1.4667 2.7133,-2.6667 3.08,-2.6667 0.3667,0 -0.4193,1.2 -1.7466,2.6667 -1.3273,1.4667 -2.7133,2.6667 -3.08,2.6667 -0.3667,0 0.4193,-1.2 1.7466,-2.6667 z m 4.6667,-5.8367 c 0,-0.2769 1.05,-1.3269 2.3333,-2.3334 2.1148,-1.6585 2.1619,-1.6113 0.5034,0.5034 -1.7418,2.221 -2.8367,2.9273 -2.8367,1.83 z m 10.6667,-14.6667 c 0,-0.2769 1.05,-1.3269 2.3333,-2.3333 2.1147,-1.6585 2.1619,-1.6114 0.5034,0.5034 -1.7418,2.221 -2.8367,2.9273 -2.8367,1.8299 z m 6.6666,-9.3333 c 0,-0.2769 1.05,-1.3269 2.3334,-2.3334 2.1147,-1.6585 2.1619,-1.6113 0.5034,0.5034 -1.7419,2.221 -2.8368,2.9273 -2.8368,1.83 z m 16,-22.6667 c 0,-0.2769 1.05,-1.3269 2.3334,-2.3333 2.1147,-1.6585 2.1619,-1.6114 0.5034,0.5034 -1.7419,2.221 -2.8368,2.9273 -2.8368,1.8299 z M 1115,2045.6866 c 3.4833,-0.2747 9.1833,-0.2747 12.6667,0 3.4833,0.2747 0.6333,0.4994 -6.3334,0.4994 -6.9666,0 -9.8166,-0.2247 -6.3333,-0.4994 z m 76.6667,-0.012 c 6.05,-0.2471 15.95,-0.2471 22,0 6.05,0.247 1.1,0.4492 -11,0.4492 -12.1,0 -17.05,-0.2022 -11,-0.4492 z m -122,-1.3214 c 3.4833,-0.2747 9.1833,-0.2747 12.6666,0 3.4834,0.2746 0.6334,0.4994 -6.3333,0.4994 -6.9667,0 -9.8167,-0.2248 -6.3333,-0.4994 z m 192.6822,0.037 c 1.6585,-0.3189 4.0585,-0.3068 5.3333,0.027 1.2748,0.3337 -0.082,0.5947 -3.0155,0.5799 -2.9334,-0.015 -3.9764,-0.2879 -2.3178,-0.6068 z m -234.0156,-1.3616 c 2.75,-0.2877 7.25,-0.2877 10,0 2.75,0.2877 0.5,0.523 -5,0.523 -5.5,0 -7.75,-0.2353 -5,-0.523 z m 252.6822,0.028 c 1.6586,-0.3189 4.0586,-0.3068 5.3334,0.027 1.2748,0.3337 -0.082,0.5947 -3.0156,0.5799 -2.9333,-0.015 -3.9763,-0.2879 -2.3178,-0.6068 z m -274.6822,-1.3313 c 1.65,-0.3178 4.35,-0.3178 6,0 1.65,0.3178 0.3,0.5778 -3,0.5778 -3.3,0 -4.65,-0.26 -3,-0.5778 z m 293.3334,0 c 1.65,-0.3178 4.35,-0.3178 6,0 1.65,0.3178 0.3,0.5778 -3,0.5778 -3.3,0 -4.65,-0.26 -3,-0.5778 z M 2452,2042.1633 c 0,-0.2769 1.05,-1.3269 2.3333,-2.3334 2.1148,-1.6585 2.1619,-1.6113 0.5034,0.5034 -1.7418,2.221 -2.8367,2.9273 -2.8367,1.83 z m -1464.33333,-1.7709 c 1.65,-0.3178 4.35,-0.3178 6,0 1.65,0.3178 0.3,0.5778 -3,0.5778 -3.3,0 -4.65,-0.26 -3,-0.5778 z m 330.66663,0 c 1.65,-0.3178 4.35,-0.3178 6,0 1.65,0.3178 0.3,0.5778 -3,0.5778 -3.3,0 -4.65,-0.26 -3,-0.5778 z m -351.31497,-1.3492 c 2.02675,-0.3064 5.02675,-0.2983 6.66667,0.018 1.63992,0.3165 -0.0183,0.5673 -3.685,0.5572 -3.66667,-0.01 -5.00842,-0.2689 -2.98167,-0.5754 z M 1153,2039.117 c 0.9167,-0.3699 2.4167,-0.3699 3.3333,0 0.9167,0.3698 0.1667,0.6725 -1.6666,0.6725 -1.8334,0 -2.5834,-0.3027 -1.6667,-0.6725 z m 185.3489,-0.06 c 1.6585,-0.3189 4.0585,-0.3068 5.3333,0.027 1.2748,0.3337 -0.082,0.5947 -3.0155,0.5799 -2.9334,-0.015 -3.9764,-0.2879 -2.3178,-0.6068 z m -392.01557,-1.3313 c 1.65,-0.3178 4.35,-0.3178 6,0 1.65,0.3178 0.3,0.5778 -3,0.5778 -3.3,0 -4.65,-0.26 -3,-0.5778 z m 130.74997,0.03 c 0.9625,-0.3851 2.1125,-0.3377 2.5556,0.1053 0.443,0.4431 -0.3445,0.7582 -1.75,0.7003 -1.5533,-0.064 -1.8692,-0.3799 -0.8056,-0.8056 z m 278.5834,-0.03 c 1.65,-0.3178 4.35,-0.3178 6,0 1.65,0.3178 0.3,0.5778 -3,0.5778 -3.3,0 -4.65,-0.26 -3,-0.5778 z m -429.33337,-1.3333 c 1.65,-0.3178 4.35,-0.3178 6,0 1.65,0.3178 0.3,0.5778 -3,0.5778 -3.3,0 -4.65,-0.26 -3,-0.5778 z M 1373,2036.4503 c 0.9167,-0.3699 2.4167,-0.3699 3.3333,0 0.9167,0.3699 0.1667,0.6725 -1.6666,0.6725 -1.8334,0 -2.5834,-0.3026 -1.6667,-0.6725 z m -488.66535,-1.7836 c 0.30332,-1.1283 2.23628,-2.0922 4.43484,-2.2115 3.35623,-0.1822 3.4345,-0.1173 0.56384,0.4677 -1.83333,0.3736 -3.82901,1.3688 -4.43484,2.2115 -0.73632,1.0243 -0.92325,0.8692 -0.56384,-0.4677 z m 23.99868,0.4142 c 1.28334,-0.3354 3.38334,-0.3354 4.66667,0 1.28333,0.3354 0.23333,0.6098 -2.33333,0.6098 -2.56667,0 -3.61667,-0.2744 -2.33334,-0.6098 z m 475.33337,0.036 c 0.9166,-0.3699 2.4166,-0.3699 3.3333,0 0.9167,0.3698 0.1667,0.6725 -1.6667,0.6725 -1.8333,0 -2.5833,-0.3027 -1.6666,-0.6725 z M 897,2033.7836 c 0.91667,-0.3699 2.41667,-0.3699 3.33333,0 0.91667,0.3699 0.16667,0.6725 -1.66666,0.6725 -1.83334,0 -2.58334,-0.3026 -1.66667,-0.6725 z m 497.3333,0 c 0.9167,-0.3699 2.4167,-0.3699 3.3334,0 0.9166,0.3699 0.1666,0.6725 -1.6667,0.6725 -1.8333,0 -2.5833,-0.3026 -1.6667,-0.6725 z m 11.3587,-1.3743 c 1.2973,-0.338 3.0973,-0.3158 4,0.05 0.9028,0.3652 -0.1587,0.6418 -2.3587,0.6146 -2.2,-0.027 -2.9385,-0.326 -1.6413,-0.6641 z m 10.6667,-1.3333 c 1.2973,-0.338 3.0973,-0.3158 4,0.049 0.9027,0.3652 -0.1587,0.6418 -2.3587,0.6147 -2.2,-0.027 -2.9386,-0.326 -1.6413,-0.6641 z m 10.6667,-1.3333 c 1.2973,-0.3381 3.0973,-0.3158 4,0.049 0.9027,0.3652 -0.1587,0.6418 -2.3587,0.6146 -2.2,-0.027 -2.9386,-0.326 -1.6413,-0.664 z m 11.3079,-1.2924 c 0.9167,-0.3699 2.4167,-0.3699 3.3334,0 0.9166,0.3699 0.1666,0.6725 -1.6667,0.6725 -1.8333,0 -2.5833,-0.3026 -1.6667,-0.6725 z M 1449,2027.117 c 0.9167,-0.3699 2.4167,-0.3699 3.3333,0 0.9167,0.3698 0.1667,0.6725 -1.6666,0.6725 -1.8334,0 -2.5834,-0.3027 -1.6667,-0.6725 z m 10.6667,-1.3334 c 0.9166,-0.3699 2.4166,-0.3699 3.3333,0 0.9167,0.3699 0.1667,0.6725 -1.6667,0.6725 -1.8333,0 -2.5833,-0.3026 -1.6666,-0.6725 z m 10.6666,-1.3333 c 0.9167,-0.3699 2.4167,-0.3699 3.3334,0 0.9166,0.3699 0.1666,0.6725 -1.6667,0.6725 -1.8333,0 -2.5833,-0.3026 -1.6667,-0.6725 z M 1481,2023.117 c 0.9167,-0.3699 2.4167,-0.3699 3.3333,0 0.9167,0.3698 0.1667,0.6725 -1.6666,0.6725 -1.8334,0 -2.5834,-0.3027 -1.6667,-0.6725 z m 10.6667,-1.3334 c 0.9166,-0.3699 2.4166,-0.3699 3.3333,0 0.9167,0.3699 0.1667,0.6725 -1.6667,0.6725 -1.8333,0 -2.5833,-0.3026 -1.6666,-0.6725 z m 10.75,-1.3611 c 0.9625,-0.3851 2.1125,-0.3378 2.5555,0.1053 0.4431,0.443 -0.3444,0.7582 -1.75,0.7003 -1.5532,-0.064 -1.8692,-0.38 -0.8055,-0.8056 z m 6.6666,-1.3333 c 0.9625,-0.3852 2.1125,-0.3378 2.5556,0.1052 0.443,0.4431 -0.3445,0.7582 -1.75,0.7003 -1.5533,-0.064 -1.8692,-0.3799 -0.8056,-0.8055 z m 14.6667,-2.6667 c 0.9625,-0.3851 2.1125,-0.3378 2.5556,0.1053 0.443,0.443 -0.3445,0.7582 -1.75,0.7003 -1.5533,-0.064 -1.8692,-0.38 -0.8056,-0.8056 z m 6.6667,-1.3333 c 0.9625,-0.3852 2.1125,-0.3378 2.5555,0.1052 0.4431,0.4431 -0.3444,0.7582 -1.75,0.7003 -1.5532,-0.064 -1.8692,-0.3799 -0.8055,-0.8055 z m 14.6666,-2.6667 c 0.9625,-0.3851 2.1125,-0.3378 2.5556,0.1053 0.443,0.443 -0.3445,0.7582 -1.75,0.7003 -1.5533,-0.064 -1.8692,-0.38 -0.8056,-0.8056 z m 6.6667,-1.3333 c 0.9625,-0.3852 2.1125,-0.3378 2.5556,0.1052 0.443,0.4431 -0.3445,0.7582 -1.75,0.7003 -1.5533,-0.064 -1.8692,-0.3799 -0.8056,-0.8055 z m 6.6667,-1.3334 c 0.9625,-0.3851 2.1125,-0.3377 2.5555,0.1053 0.4431,0.4431 -0.3444,0.7582 -1.75,0.7003 -1.5532,-0.064 -1.8692,-0.3799 -0.8055,-0.8056 z m 14.6666,-2.6666 c 0.9625,-0.3852 2.1125,-0.3378 2.5556,0.1052 0.443,0.4431 -0.3445,0.7582 -1.75,0.7003 -1.5533,-0.064 -1.8692,-0.3799 -0.8056,-0.8055 z m 6.6667,-1.3334 c 0.9625,-0.3851 2.1125,-0.3377 2.5556,0.1053 0.443,0.4431 -0.3445,0.7582 -1.75,0.7003 -1.5533,-0.064 -1.8692,-0.3799 -0.8056,-0.8056 z m 6.6667,-1.3333 c 0.9625,-0.3851 2.1125,-0.3378 2.5555,0.1053 0.4431,0.443 -0.3444,0.7582 -1.75,0.7003 -1.5532,-0.064 -1.8692,-0.38 -0.8055,-0.8056 z m 14.6666,-2.6667 c 0.9625,-0.3851 2.1125,-0.3377 2.5556,0.1053 0.443,0.4431 -0.3445,0.7582 -1.75,0.7003 -1.5533,-0.064 -1.8692,-0.3799 -0.8056,-0.8056 z m 6.6667,-1.3333 c 0.9625,-0.3851 2.1125,-0.3378 2.5556,0.1053 0.443,0.443 -0.3445,0.7582 -1.75,0.7003 -1.5533,-0.064 -1.8692,-0.38 -0.8056,-0.8056 z m 6.6667,-1.3333 c 0.9625,-0.3852 2.1125,-0.3378 2.5555,0.1052 0.4431,0.4431 -0.3444,0.7582 -1.75,0.7003 -1.5532,-0.064 -1.8692,-0.3799 -0.8055,-0.8055 z m 864.25,-1.7559 c 0.7849,-1.4666 1.7271,-2.6666 2.0938,-2.6666 0.3667,0 0.024,1.2 -0.7605,2.6666 -0.7849,1.4667 -1.7272,2.6667 -2.0938,2.6667 -0.3667,0 -0.024,-1.2 0.7605,-2.6667 z m -849.5834,-0.9108 c 0.9625,-0.3851 2.1125,-0.3378 2.5556,0.1053 0.443,0.443 -0.3445,0.7582 -1.75,0.7003 -1.5533,-0.064 -1.8692,-0.38 -0.8056,-0.8056 z m 6.6667,-1.3333 c 0.9625,-0.3852 2.1125,-0.3378 2.5556,0.1052 0.443,0.4431 -0.3445,0.7582 -1.75,0.7003 -1.5533,-0.064 -1.8692,-0.3799 -0.8056,-0.8055 z m 6.6667,-1.3334 c 0.9625,-0.3851 2.1125,-0.3377 2.5555,0.1053 0.4431,0.4431 -0.3444,0.7582 -1.75,0.7003 -1.5532,-0.064 -1.8692,-0.3799 -0.8055,-0.8056 z m 14.6666,-2.6666 c 0.9625,-0.3852 2.1125,-0.3378 2.5556,0.1052 0.443,0.4431 -0.3445,0.7582 -1.75,0.7003 -1.5533,-0.064 -1.8692,-0.3799 -0.8056,-0.8055 z m 6.6667,-1.3334 c 0.9625,-0.3851 2.1125,-0.3377 2.5556,0.1053 0.443,0.4431 -0.3445,0.7582 -1.75,0.7003 -1.5533,-0.064 -1.8692,-0.3799 -0.8056,-0.8056 z m 6.6667,-1.3333 c 0.9625,-0.3851 2.1125,-0.3378 2.5555,0.1053 0.4431,0.443 -0.3444,0.7582 -1.75,0.7003 -1.5532,-0.064 -1.8692,-0.38 -0.8055,-0.8056 z m 21.3333,-4 c 0.9625,-0.3851 2.1125,-0.3378 2.5556,0.1053 0.443,0.443 -0.3445,0.7582 -1.75,0.7003 -1.5533,-0.064 -1.8692,-0.38 -0.8056,-0.8056 z m 6.6667,-1.3333 c 0.9625,-0.3852 2.1125,-0.3378 2.5555,0.1052 0.4431,0.4431 -0.3444,0.7582 -1.75,0.7003 -1.5532,-0.064 -1.8692,-0.3799 -0.8055,-0.8055 z m 6.6666,-1.3334 c 0.9625,-0.3851 2.1125,-0.3377 2.5556,0.1053 0.443,0.4431 -0.3445,0.7582 -1.75,0.7003 -1.5533,-0.064 -1.8692,-0.3799 -0.8056,-0.8056 z m 14.6667,-2.6666 c 0.9625,-0.3852 2.1125,-0.3378 2.5556,0.1052 0.443,0.4431 -0.3445,0.7582 -1.75,0.7003 -1.5533,-0.064 -1.8692,-0.3799 -0.8056,-0.8055 z m 6.6667,-1.3334 c 0.9625,-0.3851 2.1125,-0.3377 2.5555,0.1053 0.4431,0.4431 -0.3444,0.7582 -1.75,0.7003 -1.5532,-0.064 -1.8692,-0.3799 -0.8055,-0.8056 z m 6.6666,-1.3333 c 0.9625,-0.3851 2.1125,-0.3378 2.5556,0.1053 0.443,0.443 -0.3445,0.7582 -1.75,0.7003 -1.5533,-0.064 -1.8692,-0.38 -0.8056,-0.8056 z m 14.6667,-2.6667 c 0.9625,-0.3851 2.1125,-0.3377 2.5556,0.1053 0.443,0.4431 -0.3445,0.7582 -1.75,0.7003 -1.5533,-0.064 -1.8692,-0.3799 -0.8056,-0.8056 z m 6.6667,-1.3333 c 0.9625,-0.3851 2.1125,-0.3378 2.5555,0.1053 0.4431,0.443 -0.3444,0.7582 -1.75,0.7003 -1.5532,-0.064 -1.8692,-0.38 -0.8055,-0.8056 z m 6.6666,-1.3333 c 0.9625,-0.3852 2.1125,-0.3378 2.5556,0.1052 0.443,0.4431 -0.3445,0.7582 -1.75,0.7003 -1.5533,-0.064 -1.8692,-0.3799 -0.8056,-0.8055 z m 6.6667,-1.3334 c 0.9625,-0.3851 2.1125,-0.3377 2.5556,0.1053 0.443,0.4431 -0.3445,0.7582 -1.75,0.7003 -1.5533,-0.064 -1.8692,-0.3799 -0.8056,-0.8056 z m 14.6667,-2.6666 c 0.9625,-0.3852 2.1125,-0.3378 2.5555,0.1052 0.4431,0.4431 -0.3444,0.7582 -1.75,0.7003 -1.5532,-0.064 -1.8692,-0.3799 -0.8055,-0.8055 z m 17.3333,-4 c 0.9625,-0.3852 2.1125,-0.3378 2.5556,0.1052 0.443,0.4431 -0.3445,0.7582 -1.75,0.7003 -1.5533,-0.064 -1.8692,-0.3799 -0.8056,-0.8055 z m 5.3333,-1.3334 c 0.9625,-0.3851 2.1125,-0.3377 2.5556,0.1053 0.443,0.4431 -0.3445,0.7582 -1.75,0.7003 -1.5533,-0.064 -1.8692,-0.3799 -0.8056,-0.8056 z m 44,-10.6666 c 0.9625,-0.3852 2.1125,-0.3378 2.5556,0.1052 0.443,0.4431 -0.3445,0.7582 -1.75,0.7003 -1.5533,-0.064 -1.8692,-0.3799 -0.8056,-0.8055 z m 5.3334,-1.3334 c 0.9625,-0.3851 2.1125,-0.3377 2.5555,0.1053 0.4431,0.4431 -0.3444,0.7582 -1.75,0.7003 -1.5532,-0.064 -1.8692,-0.3799 -0.8055,-0.8056 z m 684.3552,-101.2002 c 0.064,-1.5533 0.38,-1.8692 0.8056,-0.8056 0.3851,0.9625 0.3378,2.1125 -0.1053,2.5556 -0.443,0.443 -0.7582,-0.3445 -0.7003,-1.75 z m 2.6667,-12 c 0.064,-1.5533 0.3799,-1.8692 0.8056,-0.8056 0.3851,0.9625 0.3377,2.1125 -0.1053,2.5556 -0.4431,0.443 -0.7582,-0.3445 -0.7003,-1.75 z m 4,-17.3334 c 0.064,-1.5532 0.3799,-1.8692 0.8056,-0.8055 0.3851,0.9625 0.3377,2.1125 -0.1053,2.5555 -0.4431,0.4431 -0.7582,-0.3444 -0.7003,-1.75 z m 4,-17.3333 c 0.064,-1.5533 0.3799,-1.8692 0.8056,-0.8056 0.3851,0.9625 0.3377,2.1125 -0.1053,2.5556 -0.4431,0.443 -0.7582,-0.3445 -0.7003,-1.75 z m 2.7719,-15.2222 c 0,-1.8334 0.3027,-2.5834 0.6725,-1.6667 0.3699,0.9167 0.3699,2.4167 0,3.3333 -0.3698,0.9167 -0.6725,0.1667 -0.6725,-1.6666 z m -221.5438,-1.3334 c 1.1,-0.7108 2.6,-1.2925 3.3333,-1.2925 0.7333,0 0.4333,0.5817 -0.6667,1.2925 -1.1,0.7109 -2.6,1.2925 -3.3333,1.2925 -0.7333,0 -0.4333,-0.5816 0.6667,-1.2925 z m 222.9266,-10 c 0.027,-2.2 0.326,-2.9385 0.664,-1.6413 0.3381,1.2973 0.3158,3.0973 -0.049,4 -0.3652,0.9028 -0.6418,-0.1587 -0.6146,-2.3587 z m 1.3333,-12 c 0.027,-2.2 0.326,-2.9385 0.6641,-1.6413 0.338,1.2973 0.3158,3.0973 -0.05,4 -0.3652,0.9028 -0.6418,-0.1587 -0.6146,-2.3587 z M 2374.6667,1764 c 1.1,-0.7109 2.6,-1.2925 3.3333,-1.2925 0.7333,0 0.4333,0.5816 -0.6667,1.2925 -1.1,0.7109 -2.6,1.2925 -3.3333,1.2925 -0.7333,0 -0.4333,-0.5816 0.6667,-1.2925 z m 181.5438,-12 c 0,-1.8333 0.3027,-2.5833 0.6725,-1.6667 0.3699,0.9167 0.3699,2.4167 0,3.3334 -0.3698,0.9166 -0.6725,0.1666 -0.6725,-1.6667 z m 1.3828,-11.3333 c 0.027,-2.2 0.326,-2.9386 0.664,-1.6413 0.3381,1.2973 0.3158,3.0973 -0.049,4 -0.3652,0.9027 -0.6418,-0.1587 -0.6146,-2.3587 z m -126.9266,-3.9062 c 0,-0.3667 1.2,-1.3089 2.6666,-2.0938 1.4667,-0.785 2.6667,-1.1272 2.6667,-0.7605 0,0.3666 -1.2,1.3089 -2.6667,2.0938 -1.4666,0.7849 -2.6666,1.1272 -2.6666,0.7605 z m 128.2105,-7.4272 c 0,-1.8333 0.3026,-2.5833 0.6725,-1.6666 0.3699,0.9166 0.3699,2.4166 0,3.3333 -0.3699,0.9167 -0.6725,0.1667 -0.6725,-1.6667 z m -105.5439,-4.5728 c 0,-0.3667 1.2,-1.3089 2.6667,-2.0938 1.4667,-0.785 2.6667,-1.1272 2.6667,-0.7605 0,0.3666 -1.2,1.3089 -2.6667,2.0938 -1.4667,0.7849 -2.6667,1.1272 -2.6667,0.7605 z m 20,-10.6667 c 0,-0.3666 1.2,-1.3089 2.6667,-2.0938 1.4667,-0.7849 2.6667,-1.1272 2.6667,-0.7605 0,0.3667 -1.2,1.3089 -2.6667,2.0938 -1.4667,0.785 -2.6667,1.1272 -2.6667,0.7605 z m 22.6667,-12 c 0,-0.3666 1.2,-1.3089 2.6667,-2.0938 1.4666,-0.7849 2.6666,-1.1272 2.6666,-0.7605 0,0.3667 -1.2,1.3089 -2.6666,2.0938 -1.4667,0.785 -2.6667,1.1272 -2.6667,0.7605 z m 30.6667,-16.0253 c 0,-0.3667 1.8,-1.5975 4,-2.7352 2.2,-1.1376 4,-1.7684 4,-1.4018 0,0.3667 -1.8,1.5975 -4,2.7352 -2.2,1.1376 -4,1.7684 -4,1.4018 z M 1117.685,1629.7099 c 2.0267,-0.3065 5.0267,-0.2983 6.6667,0.018 1.6399,0.3165 -0.018,0.5672 -3.685,0.5572 -3.6667,-0.01 -5.0085,-0.2689 -2.9817,-0.5754 z m 37.3805,-0.037 c 6.4526,-0.245 16.6526,-0.2437 22.6666,0 6.014,0.2465 0.7346,0.4469 -11.7321,0.4454 -12.4667,0 -17.3872,-0.2032 -10.9345,-0.4481 z m -61.3988,-1.2947 c 2.0166,-0.3055 5.3166,-0.3055 7.3333,0 2.0167,0.3055 0.3667,0.5555 -3.6667,0.5555 -4.0333,0 -5.6833,-0.25 -3.6666,-0.5555 z m 109.3516,0 c 2.0268,-0.3065 5.0268,-0.2983 6.6667,0.018 1.6399,0.3164 -0.018,0.5672 -3.685,0.5572 -3.6667,-0.01 -5.0084,-0.269 -2.9817,-0.5754 z m -132,-1.3334 c 2.0268,-0.3064 5.0268,-0.2983 6.6667,0.018 1.6399,0.3165 -0.018,0.5673 -3.685,0.5572 -3.6667,-0.01 -5.0084,-0.2689 -2.9817,-0.5754 z m 155.9817,0 c 2.0167,-0.3055 5.3167,-0.3055 7.3333,0 2.0167,0.3055 0.3667,0.5554 -3.6666,0.5554 -4.0334,0 -5.6834,-0.2499 -3.6667,-0.5554 z m -181.3333,-1.3333 c 2.0166,-0.3055 5.3166,-0.3055 7.3333,0 2.0167,0.3055 0.3667,0.5554 -3.6667,0.5554 -4.0333,0 -5.6833,-0.2499 -3.6666,-0.5554 z m 205.3516,0 c 2.0268,-0.3065 5.0268,-0.2983 6.6667,0.018 1.6399,0.3165 -0.018,0.5672 -3.685,0.5572 -3.6667,-0.01 -5.0084,-0.2689 -2.9817,-0.5754 z m -221.3516,-1.2957 c 1.2833,-0.3353 3.3833,-0.3353 4.6666,0 1.2834,0.3354 0.2334,0.6098 -2.3333,0.6098 -2.5667,0 -3.6167,-0.2744 -2.3333,-0.6098 z m 248.6905,-0.047 c 2.3965,-0.2967 5.9965,-0.2906 8,0.014 2.0035,0.3043 0.043,0.5471 -4.3572,0.5396 -4.4,-0.01 -6.0393,-0.2564 -3.6428,-0.5532 z m -265.3417,-1.31 c 1.6586,-0.3189 4.0586,-0.3068 5.3334,0.027 1.2748,0.3337 -0.082,0.5947 -3.0156,0.5799 -2.9333,-0.015 -3.9763,-0.2879 -2.3178,-0.6068 z M 1305,1623.0355 c 2.3833,-0.2958 6.2833,-0.2958 8.6667,0 2.3833,0.2957 0.4333,0.5377 -4.3334,0.5377 -4.7666,0 -6.7166,-0.242 -4.3333,-0.5377 z m -307.33333,-1.2879 c 1.28333,-0.3354 3.38333,-0.3354 4.66663,0 1.2834,0.3353 0.2334,0.6097 -2.3333,0.6097 -2.56667,0 -3.61667,-0.2744 -2.33333,-0.6097 z m 335.35723,-0.047 c 2.3964,-0.2968 5.9964,-0.2907 8,0.014 2.0035,0.3042 0.043,0.547 -4.3572,0.5395 -4.4,-0.01 -6.0393,-0.2564 -3.6428,-0.5531 z m -351.35723,-1.2862 c 1.28333,-0.3353 3.38333,-0.3353 4.66666,0 1.28334,0.3354 0.23334,0.6098 -2.33333,0.6098 -2.56667,0 -3.61667,-0.2744 -2.33333,-0.6098 z m 377.35873,0 c 1.2973,-0.338 3.0973,-0.3158 4,0.05 0.9027,0.3652 -0.1587,0.6418 -2.3587,0.6146 -2.2,-0.027 -2.9386,-0.326 -1.6413,-0.6641 z m -392.67652,-1.3523 c 1.65855,-0.3189 4.05855,-0.3068 5.33333,0.027 1.27479,0.3337 -0.0822,0.5947 -3.01554,0.5799 -2.93334,-0.015 -3.97634,-0.2879 -2.31779,-0.6068 z M 953,1617.7836 c 0.91667,-0.3699 2.41667,-0.3699 3.33333,0 0.91667,0.3699 0.16667,0.6725 -1.66666,0.6725 -1.83334,0 -2.58334,-0.3026 -1.66667,-0.6725 z m -9.33333,-1.3333 c 0.91666,-0.3699 2.41666,-0.3699 3.33333,0 0.91667,0.3699 0.16667,0.6725 -1.66667,0.6725 -1.83333,0 -2.58333,-0.3026 -1.66666,-0.6725 z m -7.91667,-1.3611 c 0.9625,-0.3852 2.1125,-0.3378 2.55556,0.1052 0.44305,0.4431 -0.34445,0.7582 -1.75,0.7003 -1.55326,-0.064 -1.8692,-0.3799 -0.80556,-0.8055 z m -9.33333,-1.3334 c 0.9625,-0.3851 2.1125,-0.3377 2.55555,0.1053 0.44306,0.4431 -0.34444,0.7582 -1.75,0.7003 -1.55326,-0.064 -1.8692,-0.3799 -0.80555,-0.8056 z M 917,1612.4503 c 0.91667,-0.3699 2.41667,-0.3699 3.33333,0 0.91667,0.3699 0.16667,0.6725 -1.66666,0.6725 -1.83334,0 -2.58334,-0.3026 -1.66667,-0.6725 z m -9.33333,-1.3333 c 0.91666,-0.3699 2.41666,-0.3699 3.33333,0 0.91667,0.3698 0.16667,0.6725 -1.66667,0.6725 -1.83333,0 -2.58333,-0.3027 -1.66666,-0.6725 z m -9.33334,-1.3334 c 0.91667,-0.3699 2.41667,-0.3699 3.33334,0 0.91666,0.3699 0.16666,0.6725 -1.66667,0.6725 -1.83333,0 -2.58333,-0.3026 -1.66667,-0.6725 z m -7.91666,-1.3611 c 0.9625,-0.3851 2.1125,-0.3378 2.55555,0.1053 0.44306,0.443 -0.34444,0.7582 -1.75,0.7003 -1.55326,-0.064 -1.8692,-0.38 -0.80555,-0.8056 z M 881,1607.117 c 0.91667,-0.3699 2.41667,-0.3699 3.33333,0 0.91667,0.3698 0.16667,0.6725 -1.66666,0.6725 -1.83334,0 -2.58334,-0.3027 -1.66667,-0.6725 z m -7.91667,-1.3612 c 0.9625,-0.3851 2.1125,-0.3377 2.55556,0.1053 0.44305,0.4431 -0.34445,0.7582 -1.75,0.7003 -1.55326,-0.064 -1.8692,-0.3799 -0.80556,-0.8056 z m -9.41666,-1.3055 c 0.91666,-0.3699 2.41666,-0.3699 3.33333,0 0.91667,0.3699 0.16667,0.6725 -1.66667,0.6725 -1.83333,0 -2.58333,-0.3026 -1.66666,-0.6725 z m -7.91667,-1.3611 c 0.9625,-0.3852 2.1125,-0.3378 2.55556,0.1052 0.44305,0.4431 -0.34445,0.7582 -1.75,0.7003 -1.55326,-0.064 -1.8692,-0.3799 -0.80556,-0.8055 z M 845.99421,992 c 0,-334.03333 0.1526,-470.68333 0.33911,-303.66667 0.18651,167.01667 0.18651,440.31667 0,607.33337 -0.18651,167.0166 -0.33911,30.3666 -0.33911,-303.6667 z m 1200.42249,480.4225 c 0.9625,-0.3851 2.1125,-0.3378 2.5555,0.1053 0.4431,0.443 -0.3444,0.7582 -1.75,0.7003 -1.5532,-0.064 -1.8692,-0.38 -0.8055,-0.8056 z M 2200,1412 c 1.1,-0.7109 2.6,-1.2925 3.3333,-1.2925 0.7334,0 0.4334,0.5816 -0.6666,1.2925 -1.1,0.7109 -2.6,1.2925 -3.3334,1.2925 -0.7333,0 -0.4333,-0.5816 0.6667,-1.2925 z m 30.6667,-13.3333 c 1.1,-0.7109 2.6,-1.2925 3.3333,-1.2925 0.7333,0 0.4333,0.5816 -0.6667,1.2925 -1.1,0.7108 -2.6,1.2925 -3.3333,1.2925 -0.7333,0 -0.4333,-0.5817 0.6667,-1.2925 z m 44,-20.5729 c 0,-0.3666 1.2,-1.3089 2.6666,-2.0938 1.4667,-0.7849 2.6667,-1.1272 2.6667,-0.7605 0,0.3667 -1.2,1.3089 -2.6667,2.0938 -1.4666,0.785 -2.6666,1.1272 -2.6666,0.7605 z m 12,-6.6666 c 0,-0.3667 1.2,-1.3089 2.6666,-2.0939 1.4667,-0.7849 2.6667,-1.1271 2.6667,-0.7605 0,0.3667 -1.2,1.3089 -2.6667,2.0939 -1.4666,0.7849 -2.6666,1.1271 -2.6666,0.7605 z m 21.3333,-12 c 0,-0.3667 1.2,-1.3089 2.6667,-2.0939 1.4666,-0.7849 2.6666,-1.1271 2.6666,-0.7605 0,0.3667 -1.2,1.3089 -2.6666,2.0939 -1.4667,0.7849 -2.6667,1.1271 -2.6667,0.7605 z m 33.3333,-18.6667 c 0,-0.3667 1.2,-1.3089 2.6667,-2.0938 1.4667,-0.785 2.6667,-1.1272 2.6667,-0.7605 0,0.3666 -1.2,1.3089 -2.6667,2.0938 -1.4667,0.7849 -2.6667,1.1272 -2.6667,0.7605 z m 33.3334,-18.6667 c 0,-0.3666 1.2,-1.3089 2.6666,-2.0938 1.4667,-0.7849 2.6667,-1.1272 2.6667,-0.7605 0,0.3667 -1.2,1.3089 -2.6667,2.0938 -1.4666,0.785 -2.6666,1.1272 -2.6666,0.7605 z m 48,-26.6666 c 0,-0.3667 1.2,-1.3089 2.6666,-2.0939 1.4667,-0.7849 2.6667,-1.1271 2.6667,-0.7605 0,0.3667 -1.2,1.3089 -2.6667,2.0939 -1.4666,0.7849 -2.6666,1.1271 -2.6666,0.7605 z m 14.6666,-8 c 0,-0.3667 1.2,-1.3089 2.6667,-2.0939 1.4667,-0.7849 2.6667,-1.1271 2.6667,-0.7605 0,0.3667 -1.2,1.3089 -2.6667,2.0939 -1.4667,0.7849 -2.6667,1.1271 -2.6667,0.7605 z m 14.6667,-8 c 0,-0.3667 1.2,-1.3089 2.6667,-2.0939 1.4666,-0.7849 2.6666,-1.1271 2.6666,-0.7605 0,0.3667 -1.2,1.3089 -2.6666,2.0939 -1.4667,0.7849 -2.6667,1.1271 -2.6667,0.7605 z m 14.6667,-8 c 0,-0.3667 1.2,-1.3089 2.6666,-2.0939 1.4667,-0.7849 2.6667,-1.1271 2.6667,-0.7605 0,0.3667 -1.2,1.3089 -2.6667,2.0939 -1.4666,0.7849 -2.6666,1.1271 -2.6666,0.7605 z m 14.6666,-8 c 0,-0.3667 1.2,-1.3089 2.6667,-2.0939 1.4667,-0.7849 2.6667,-1.1271 2.6667,-0.7605 0,0.3667 -1.2,1.3089 -2.6667,2.0939 -1.4667,0.7849 -2.6667,1.1271 -2.6667,0.7605 z m 14.6667,-8 c 0,-0.3667 1.2,-1.3089 2.6667,-2.0939 1.4666,-0.7849 2.6666,-1.1271 2.6666,-0.7605 0,0.3667 -1.2,1.3089 -2.6666,2.0939 -1.4667,0.7849 -2.6667,1.1271 -2.6667,0.7605 z m 14.6667,-8 c 0,-0.3667 1.2,-1.3089 2.6666,-2.0939 1.4667,-0.7849 2.6667,-1.1271 2.6667,-0.7605 0,0.3667 -1.2,1.3089 -2.6667,2.0939 -1.4666,0.7849 -2.6666,1.1271 -2.6666,0.7605 z m 26.6666,-14.6667 c 0,-0.3667 1.2,-1.3089 2.6667,-2.0938 1.4667,-0.785 2.6667,-1.1272 2.6667,-0.7605 0,0.3666 -1.2,1.3089 -2.6667,2.0938 -1.4667,0.7849 -2.6667,1.1272 -2.6667,0.7605 z M 2548,805.60002 l 0.6666,-422.26669 0.3355,421.26458 c 0.1845,231.69549 -0.1155,421.71549 -0.6667,422.26669 -0.5511,0.5512 -0.7021,-189.0179 -0.3354,-421.26458 z m 666.7719,58.95554 c 0.064,-1.55326 0.38,-1.8692 0.8056,-0.80556 0.3851,0.9625 0.3378,2.1125 -0.1053,2.55556 -0.443,0.44305 -0.7582,-0.34445 -0.7003,-1.75 z m -2367.99997,-484 c 0.064,-1.55326 0.37992,-1.8692 0.80556,-0.80556 0.38516,0.9625 0.33779,2.1125 -0.10527,2.55556 -0.44305,0.44305 -0.75818,-0.34445 -0.70029,-1.75 z m 1699.99997,-1.33334 c 0.064,-1.55326 0.38,-1.8692 0.8056,-0.80555 0.3851,0.9625 0.3378,2.1125 -0.1053,2.55555 -0.443,0.44306 -0.7582,-0.34444 -0.7003,-1.75 z m -1698.66664,-4 c 0.064,-1.55326 0.37992,-1.8692 0.80556,-0.80555 0.38516,0.9625 0.33779,2.1125 -0.10526,2.55555 -0.44306,0.44306 -0.75819,-0.34444 -0.7003,-1.75 z m 1696.00004,-8 c 0.064,-1.55326 0.3799,-1.8692 0.8055,-0.80555 0.3852,0.9625 0.3378,2.1125 -0.1052,2.55555 -0.4431,0.44306 -0.7582,-0.34444 -0.7003,-1.75 z m -1.3334,-6.66666 c 0.064,-1.55326 0.38,-1.8692 0.8056,-0.80556 0.3851,0.9625 0.3378,2.1125 -0.1053,2.55556 -0.443,0.44305 -0.7582,-0.34445 -0.7003,-1.75 z M 856.11177,343.33333 c 0,-0.73333 1.14971,-3.43333 2.5549,-6 1.40519,-2.56666 2.55489,-4.06666 2.55489,-3.33333 0,0.73333 -1.1497,3.43333 -2.55489,6 -1.40519,2.56667 -2.5549,4.06667 -2.5549,3.33333 z M 2535.3333,340 c -1.1376,-2.2 -1.7684,-4 -1.4018,-4 0.3667,0 1.5975,1.8 2.7352,4 1.1376,2.2 1.7684,4 1.4018,4 -0.3667,0 -1.5975,-1.8 -2.7352,-4 z m -12.6666,-24 c -0.785,-1.46667 -1.1272,-2.66667 -0.7605,-2.66667 0.3666,0 1.3089,1.2 2.0938,2.66667 0.7849,1.46667 1.1272,2.66667 0.7605,2.66667 -0.3667,0 -1.3089,-1.2 -2.0938,-2.66667 z m -464,-1.33333 C 2059.4516,313.2 2060.3938,312 2060.7605,312 c 0.3667,0 0.024,1.2 -0.7605,2.66667 -0.7849,1.46666 -1.7272,2.66666 -2.0938,2.66666 -0.3667,0 -0.024,-1.2 0.7605,-2.66666 z m -728.1701,-22.33334 c -1.6585,-2.11474 -1.6113,-2.1619 0.5034,-0.5034 2.221,1.74182 2.9273,2.83674 1.8299,2.83674 -0.2768,0 -1.3268,-1.05 -2.3333,-2.33334 z M 1323.8299,283 c -1.6585,-2.11474 -1.6113,-2.1619 0.5034,-0.50341 2.221,1.74183 2.9273,2.83674 1.83,2.83674 -0.2769,0 -1.3269,-1.05 -2.3334,-2.33333 z m -6.6666,-9.33333 c -1.6585,-2.11474 -1.6114,-2.1619 0.5034,-0.50341 2.221,1.74183 2.9273,2.83674 1.8299,2.83674 -0.2769,0 -1.3269,-1.05 -2.3333,-2.33333 z m 767.5034,-3 C 2085.994,269.2 2087.38,268 2087.7466,268 c 0.3667,0 -0.4193,1.2 -1.7466,2.66667 -1.3273,1.46666 -2.7133,2.66666 -3.08,2.66666 -0.3666,0 0.4194,-1.2 1.7467,-2.66666 z M 906,261.33333 c 3.61153,-3.66666 6.86642,-6.66666 7.23309,-6.66666 0.36667,0 -2.28822,3 -5.89976,6.66666 C 903.7218,265 900.46691,268 900.10024,268 c -0.36666,0 2.28823,-3 5.89976,-6.66667 z m 1185.3333,1.33334 c 1.3273,-1.46667 2.7133,-2.66667 3.08,-2.66667 0.3667,0 -0.4193,1.2 -1.7466,2.66667 -1.3273,1.46666 -2.7133,2.66666 -3.08,2.66666 -0.3667,0 0.4193,-1.2 1.7466,-2.66666 z m 6.6667,-8 C 2099.3273,253.2 2100.7133,252 2101.08,252 c 0.3666,0 -0.4194,1.2 -1.7467,2.66667 -1.3273,1.46666 -2.7133,2.66666 -3.0799,2.66666 -0.3667,0 0.4193,-1.2 1.7466,-2.66666 z m 381.9282,-5 c -4.5949,-5 -4.5949,-5 0.4051,-0.40511 4.6539,4.27682 5.6131,5.40511 4.5949,5.40511 -0.2228,0 -2.4728,-2.25 -5,-5 z M 1292,246 c -3.2387,-3.3 -5.5886,-6 -5.2219,-6 0.3667,0 3.3165,2.7 6.5552,6 3.2387,3.3 5.5886,6 5.2219,6 -0.3666,0 -3.3165,-2.7 -6.5552,-6 z m 813.3333,1.33333 C 2107.0557,245.5 2108.7648,244 2109.1315,244 c 0.3667,0 -0.7425,1.5 -2.4648,3.33333 -1.7224,1.83334 -3.4315,3.33334 -3.7982,3.33334 -0.3667,0 0.7425,-1.5 2.4648,-3.33334 z m -1181.38902,-5 C 927.21363,238.85 930.06363,236 930.27761,236 c 1.00118,0 -0.0574,1.1971 -5.94428,6.72239 C 918,248.66667 918,248.66667 923.94428,242.33333 Z M 2116,238 c 1.7223,-1.83333 3.4315,-3.33333 3.7982,-3.33333 0.3666,0 -0.7425,1.5 -2.4649,3.33333 -1.7223,1.83333 -3.4315,3.33333 -3.7981,3.33333 -0.3667,0 0.7425,-1.5 2.4648,-3.33333 z m 343.3055,-10.33333 c -11.9722,-12.33334 -11.9722,-12.33334 0.3612,-0.36114 6.7833,6.58471 12.3333,12.13471 12.3333,12.33334 0,0.96807 -1.575,-0.51728 -12.6945,-11.9722 z m -1182.7227,4 c -3.9161,-4.33334 -3.9161,-4.33334 0.4172,-0.41722 2.3833,2.15387 4.3333,4.10387 4.3333,4.33334 0,1.03008 -1.1001,0.12315 -4.7505,-3.91612 z M 935.33333,232 c 1.32732,-1.46667 2.7133,-2.66667 3.07997,-2.66667 0.36667,0 -0.41932,1.2 -1.74663,2.66667 -1.32732,1.46667 -2.7133,2.66667 -3.07997,2.66667 -0.36667,0 0.41932,-1.2 1.74663,-2.66667 z m 1191.33337,-3.33333 c 1.7223,-1.83334 3.4315,-3.33334 3.7981,-3.33334 0.3667,0 -0.7425,1.5 -2.4648,3.33334 -1.7223,1.83333 -3.4315,3.33333 -3.7982,3.33333 -0.3666,0 0.7425,-1.5 2.4649,-3.33333 z M 943.33333,225.33333 c 1.32732,-1.46666 2.7133,-2.66666 3.07997,-2.66666 0.36667,0 -0.41932,1.2 -1.74663,2.66666 C 943.33935,226.8 941.95337,228 941.5867,228 c -0.36667,0 0.41932,-1.2 1.74663,-2.66667 z m 321.89907,-3.66666 C 1262,218 1262,218 1265.6667,221.23242 c 3.427,3.02118 4.2781,4.10091 3.2324,4.10091 -0.2389,0 -1.8889,-1.65 -3.6667,-3.66666 z m 869.4343,0.49659 c 0,-0.27687 1.05,-1.32687 2.3333,-2.33333 2.1147,-1.6585 2.1619,-1.61134 0.5034,0.5034 -1.7418,2.221 -2.8367,2.92731 -2.8367,1.82993 z M 951.33333,218.66667 C 952.66065,217.2 954.04663,216 954.4133,216 c 0.36667,0 -0.41932,1.2 -1.74663,2.66667 -1.32732,1.46666 -2.7133,2.66666 -3.07997,2.66666 -0.36667,0 0.41932,-1.2 1.74663,-2.66666 z m 307.16327,-2.33334 c -1.6585,-2.11474 -1.6113,-2.1619 0.5034,-0.5034 2.221,1.74182 2.9273,2.83674 1.8299,2.83674 -0.2768,0 -1.3268,-1.05 -2.3333,-2.33334 z m -5.3333,-4 c -1.6585,-2.11474 -1.6114,-2.1619 0.5034,-0.5034 2.221,1.74182 2.9273,2.83674 1.8299,2.83674 -0.2769,0 -1.3269,-1.05 -2.3333,-2.33334 z m -5.3334,-4 c -1.6585,-2.11474 -1.6113,-2.1619 0.5034,-0.5034 2.221,1.74182 2.9273,2.83674 1.83,2.83674 -0.2769,0 -1.3269,-1.05 -2.3334,-2.33334 z m -5.3333,-4 c -1.6585,-2.11474 -1.6113,-2.1619 0.5034,-0.5034 2.221,1.74182 2.9273,2.83674 1.8299,2.83674 -0.2768,0 -1.3268,-1.05 -2.3333,-2.33334 z m 1188,-1.33333 c -1.6585,-2.11474 -1.6113,-2.1619 0.5034,-0.50341 2.221,1.74183 2.9273,2.83674 1.8299,2.83674 -0.2768,0 -1.3268,-1.05 -2.3333,-2.33333 z m -1193.3333,-2.66667 c -1.6585,-2.11474 -1.6114,-2.1619 0.5034,-0.5034 2.221,1.74182 2.9273,2.83674 1.8299,2.83674 -0.2769,0 -1.3269,-1.05 -2.3333,-2.33334 z m -237.1633,-11 c 2.5667,-1.40519 5.2667,-2.55489 6,-2.55489 0.7333,0 -0.7667,1.1497 -3.3333,2.55489 -2.5667,1.40519 -5.2667,2.5549 -6.00003,2.5549 -0.73334,0 0.76666,-1.14971 3.33333,-2.5549 z m 50.4167,-18.24415 c 0.9625,-0.38516 2.1125,-0.33779 2.5555,0.10526 0.4431,0.44306 -0.3444,0.75819 -1.75,0.7003 -1.5532,-0.064 -1.8692,-0.37992 -0.8055,-0.80556 z m 12,-2.66667 c 0.9625,-0.38516 2.1125,-0.33779 2.5555,0.10527 0.4431,0.44305 -0.3444,0.75818 -1.75,0.70029 -1.5532,-0.064 -1.8692,-0.37992 -0.8055,-0.80556 z m 1177.3333,0 c 0.9625,-0.38516 2.1125,-0.33779 2.5556,0.10527 0.443,0.44305 -0.3445,0.75818 -1.75,0.70029 -1.5533,-0.064 -1.8692,-0.37992 -0.8056,-0.80556 z M 1165,167.11696 c 0.9167,-0.36988 2.4167,-0.36988 3.3333,0 0.9167,0.36988 0.1667,0.67251 -1.6666,0.67251 -1.8334,0 -2.5834,-0.30263 -1.6667,-0.67251 z m 1082.75,-0.0278 c 0.9625,-0.38516 2.1125,-0.33779 2.5556,0.10526 0.443,0.44306 -0.3445,0.75819 -1.75,0.7003 -1.5533,-0.064 -1.8692,-0.37992 -0.8056,-0.80556 z m 112,0 c 0.9625,-0.38516 2.1125,-0.33779 2.5556,0.10526 0.443,0.44306 -0.3445,0.75819 -1.75,0.7003 -1.5533,-0.064 -1.8692,-0.37992 -0.8056,-0.80556 z m -1205.4167,-1.30555 c 0.9167,-0.36989 2.4167,-0.36989 3.3334,0 0.9166,0.36988 0.1666,0.67251 -1.6667,0.67251 -1.8333,0 -2.5833,-0.30263 -1.6667,-0.67251 z m 1101.3334,0 c 0.9166,-0.36989 2.4166,-0.36989 3.3333,0 0.9167,0.36988 0.1667,0.67251 -1.6667,0.67251 -1.8333,0 -2.5833,-0.30263 -1.6666,-0.67251 z m 97.4166,-0.0278 c 0.9625,-0.38516 2.1125,-0.33779 2.5556,0.10526 0.443,0.44306 -0.3445,0.75819 -1.75,0.70029 -1.5533,-0.064 -1.8692,-0.37992 -0.8056,-0.80555 z m -1269.4464,-1.38483 c 2.367,-0.29455 6.567,-0.29938 9.3334,-0.0107 2.7663,0.28863 0.8297,0.52963 -4.3036,0.53554 -5.1334,0.006 -7.3967,-0.23024 -5.0298,-0.52479 z m 53.387,-0.004 c 2.3964,-0.29674 5.9964,-0.29062 8,0.0136 2.0035,0.30423 0.043,0.54703 -4.3572,0.53954 -4.4,-0.007 -6.0393,-0.2564 -3.6428,-0.55315 z m 1126.7261,0.0555 c 0.9625,-0.38516 2.1125,-0.33779 2.5556,0.10527 0.443,0.44305 -0.3445,0.75818 -1.75,0.70029 -1.5533,-0.064 -1.8692,-0.37992 -0.8056,-0.80556 z m 7.9167,-1.30555 c 0.9166,-0.36988 2.4166,-0.36988 3.3333,0 0.9167,0.36988 0.1667,0.67251 -1.6667,0.67251 -1.8333,0 -2.5833,-0.30263 -1.6666,-0.67251 z m 8.0833,-1.36111 c 0.9625,-0.38516 2.1125,-0.33779 2.5556,0.10526 0.443,0.44306 -0.3445,0.75819 -1.75,0.70029 -1.5533,-0.064 -1.8692,-0.37992 -0.8056,-0.80555 z m 45.2739,-0.0555 c 2.3964,-0.29675 5.9964,-0.29063 8,0.0136 2.0035,0.30424 0.043,0.54703 -4.3572,0.53955 -4.4,-0.007 -6.0393,-0.2564 -3.6428,-0.55315 z m -37.2739,-1.27785 c 0.9625,-0.38516 2.1125,-0.33779 2.5556,0.10527 0.443,0.44305 -0.3445,0.75818 -1.75,0.70029 -1.5533,-0.064 -1.8692,-0.37992 -0.8056,-0.80556 z m 10.6072,-0.0555 c 2.3965,-0.29674 5.9965,-0.29062 8,0.0136 2.0035,0.30423 0.043,0.54703 -4.3572,0.53954 -4.4,-0.007 -6.0393,-0.2564 -3.6428,-0.55315 z"
         id="path8" />
      <path
         style="fill:#9b91b4"
         d="m 1163.7114,2039.0155 c 3.8745,-0.2702 9.8745,-0.2674 13.3333,0.01 3.4587,0.2736 0.2886,0.4947 -7.0447,0.4912 -7.3333,0 -10.1632,-0.2274 -6.2886,-0.4975 z m 43.314,0.061 c 1.2973,-0.338 3.0973,-0.3158 4,0.049 0.9027,0.3652 -0.1587,0.6418 -2.3587,0.6147 -2.2,-0.027 -2.9386,-0.326 -1.6413,-0.6641 z m -120.6921,-1.3923 c 3.85,-0.2694 10.15,-0.2694 14,0 3.85,0.2693 0.7,0.4897 -7,0.4897 -7.7,0 -10.85,-0.2204 -7,-0.4897 z m 140,0.1 c 0.9167,-0.3699 2.4167,-0.3699 3.3334,0 0.9166,0.3699 0.1666,0.6725 -1.6667,0.6725 -1.8333,0 -2.5833,-0.3026 -1.6667,-0.6725 z m -194,-1.3694 c 1.2834,-0.3353 3.3834,-0.3353 4.6667,0 1.2833,0.3354 0.2333,0.6098 -2.3333,0.6098 -2.5667,0 -3.6167,-0.2744 -2.3334,-0.6098 z m 212.6667,0.036 c 0.9167,-0.3699 2.4167,-0.3699 3.3333,0 0.9167,0.3699 0.1667,0.6725 -1.6666,0.6725 -1.8334,0 -2.5834,-0.3026 -1.6667,-0.6725 z m -238,-1.3694 c 1.2833,-0.3354 3.3833,-0.3354 4.6667,0 1.2833,0.3354 0.2333,0.6098 -2.3334,0.6098 -2.5666,0 -3.6166,-0.2744 -2.3333,-0.6098 z m 256.0254,0 c 1.2973,-0.338 3.0973,-0.3158 4,0.049 0.9027,0.3652 -0.1587,0.6418 -2.3587,0.6147 -2.2,-0.027 -2.9386,-0.326 -1.6413,-0.6641 z m -281.35873,-1.3284 c 1.28333,-0.3354 3.38333,-0.3354 4.66666,0 1.28334,0.3353 0.23334,0.6097 -2.33333,0.6097 -2.56667,0 -3.61667,-0.2744 -2.33333,-0.6097 z m 300.02533,0 c 1.2973,-0.3381 3.0973,-0.3158 4,0.049 0.9028,0.3652 -0.1587,0.6418 -2.3587,0.6146 -2.2,-0.027 -2.9385,-0.326 -1.6413,-0.664 z m -324.67645,-1.3524 c 1.65855,-0.3189 4.05855,-0.3068 5.33333,0.027 1.27478,0.3337 -0.0822,0.5947 -3.01555,0.5799 -2.93333,-0.015 -3.97633,-0.2879 -2.31778,-0.6068 z m 343.34315,0.019 c 1.2973,-0.338 3.0973,-0.3158 4,0.05 0.9027,0.3652 -0.1587,0.6418 -2.3587,0.6146 -2.2,-0.027 -2.9386,-0.326 -1.6413,-0.6641 z m -368.02537,-1.3284 c 1.28334,-0.3354 3.38334,-0.3354 4.66667,0 1.28333,0.3354 0.23333,0.6098 -2.33333,0.6098 -2.56667,0 -3.61667,-0.2744 -2.33334,-0.6098 z m 385.99997,0.036 c 0.9167,-0.3699 2.4167,-0.3699 3.3334,0 0.9166,0.3698 0.1666,0.6725 -1.6667,0.6725 -1.8333,0 -2.5833,-0.3027 -1.6667,-0.6725 z M 907,2029.7476 c 1.28333,-0.3354 3.38333,-0.3354 4.66667,0 1.28333,0.3353 0.23333,0.6097 -2.33334,0.6097 -2.56666,0 -3.61666,-0.2744 -2.33333,-0.6097 z m 430,0.036 c 0.9167,-0.3699 2.4167,-0.3699 3.3333,0 0.9167,0.3699 0.1667,0.6725 -1.6666,0.6725 -1.8334,0 -2.5834,-0.3026 -1.6667,-0.6725 z m -455.33333,-1.3694 c 1.28333,-0.3353 3.38333,-0.3353 4.66666,0 1.28334,0.3354 0.23334,0.6098 -2.33333,0.6098 -2.56667,0 -3.61667,-0.2744 -2.33333,-0.6098 z m 472.66663,0.036 c 0.9167,-0.3699 2.4167,-0.3699 3.3334,0 0.9166,0.3699 0.1666,0.6725 -1.6667,0.6725 -1.8333,0 -2.5833,-0.3026 -1.6667,-0.6725 z m 19.3587,-1.3743 c 1.2973,-0.338 3.0973,-0.3158 4,0.049 0.9028,0.3652 -0.1587,0.6418 -2.3587,0.6147 -2.2,-0.027 -2.9385,-0.326 -1.6413,-0.6641 z m -519.27533,-1.3202 c 0.9625,-0.3851 2.1125,-0.3377 2.55555,0.1053 0.44306,0.4431 -0.34444,0.7582 -1.75,0.7003 -1.55326,-0.064 -1.8692,-0.3799 -0.80555,-0.8056 z m -21.33334,-2.6666 c 0.9625,-0.3852 2.1125,-0.3378 2.55556,0.1052 0.44305,0.4431 -0.34445,0.7582 -1.75,0.7003 -1.55326,-0.064 -1.8692,-0.3799 -0.80556,-0.8055 z m -10.66666,-1.3334 c 0.9625,-0.3851 2.1125,-0.3377 2.55555,0.1053 0.44306,0.4431 -0.34444,0.7582 -1.75,0.7003 -1.55326,-0.064 -1.8692,-0.3799 -0.80555,-0.8056 z m 593.33333,0 c 0.9625,-0.3851 2.1125,-0.3377 2.5556,0.1053 0.443,0.4431 -0.3445,0.7582 -1.75,0.7003 -1.5533,-0.064 -1.8692,-0.3799 -0.8056,-0.8056 z m -634.66667,-5.3333 c 0.9625,-0.3851 2.1125,-0.3378 2.55556,0.1053 0.44305,0.443 -0.34445,0.7582 -1.75,0.7003 -1.55326,-0.064 -1.8692,-0.38 -0.80556,-0.8056 z m -10.66666,-1.3333 c 0.9625,-0.3852 2.1125,-0.3378 2.55555,0.1052 0.44306,0.4431 -0.34444,0.7582 -1.75,0.7003 -1.55326,-0.064 -1.8692,-0.3799 -0.80555,-0.8055 z M 759.75,2013.7558 c 0.9625,-0.3851 2.1125,-0.3377 2.55556,0.1053 0.44305,0.4431 -0.34445,0.7582 -1.75,0.7003 -1.55326,-0.064 -1.8692,-0.3799 -0.80556,-0.8056 z m 710.6667,0 c 0.9625,-0.3851 2.1125,-0.3377 2.5555,0.1053 0.4431,0.4431 -0.3444,0.7582 -1.75,0.7003 -1.5532,-0.064 -1.8692,-0.3799 -0.8055,-0.8056 z m -721.33337,-1.3333 c 0.9625,-0.3851 2.1125,-0.3378 2.55556,0.1053 0.44305,0.443 -0.34445,0.7582 -1.75,0.7003 -1.55326,-0.064 -1.8692,-0.38 -0.80556,-0.8056 z m 766.66667,-5.3333 c 0.9625,-0.3852 2.1125,-0.3378 2.5556,0.1052 0.443,0.4431 -0.3445,0.7582 -1.75,0.7003 -1.5533,-0.064 -1.8692,-0.3799 -0.8056,-0.8055 z m 9.3333,-1.3334 c 0.9625,-0.3851 2.1125,-0.3377 2.5556,0.1053 0.443,0.4431 -0.3445,0.7582 -1.75,0.7003 -1.5533,-0.064 -1.8692,-0.3799 -0.8056,-0.8056 z M 248.66667,1780 c -8.77708,-8.8 -15.65832,-16 -15.29165,-16 0.36666,0 7.84791,7.2 16.62498,16 8.77707,8.8 15.65832,16 15.29165,16 -0.36667,0 -7.84791,-7.2 -16.62498,-16 z M 177.4386,1659.2222 c 0.064,-1.5532 0.37992,-1.8692 0.80555,-0.8055 0.38516,0.9625 0.33779,2.1125 -0.10526,2.5555 -0.44306,0.4431 -0.75819,-0.3444 -0.70029,-1.75 z m -4,-26.6666 c 0.064,-1.5533 0.37992,-1.8692 0.80555,-0.8056 0.38516,0.9625 0.33779,2.1125 -0.10526,2.5556 -0.44306,0.443 -0.75819,-0.3445 -0.70029,-1.75 z m 978.1983,1.1488 c 2.367,-0.2946 6.567,-0.2994 9.3334,-0.011 2.7663,0.2886 0.8297,0.5296 -4.3036,0.5355 -5.1334,0.01 -7.3967,-0.2302 -5.0298,-0.5247 z m 32.6964,0.01 c 2.0167,-0.3055 5.3167,-0.3055 7.3334,0 2.0166,0.3055 0.3666,0.5554 -3.6667,0.5554 -4.0333,0 -5.6833,-0.2499 -3.6667,-0.5554 z m -78,-1.3193 c 1.65,-0.3178 4.35,-0.3178 6,0 1.65,0.3178 0.3,0.5778 -3,0.5778 -3.3,0 -4.65,-0.26 -3,-0.5778 z m 116.685,-0.016 c 2.0268,-0.3065 5.0268,-0.2983 6.6667,0.018 1.6399,0.3164 -0.018,0.5672 -3.685,0.5572 -3.6667,-0.01 -5.0084,-0.269 -2.9817,-0.5754 z m -146.0028,-1.3196 c 1.6586,-0.3189 4.0586,-0.3068 5.3334,0.027 1.2748,0.3337 -0.082,0.5947 -3.0156,0.5799 -2.9333,-0.015 -3.9763,-0.2879 -2.3178,-0.6068 z m 186.0028,-0.014 c 2.0268,-0.3064 5.0268,-0.2983 6.6667,0.018 1.6399,0.3165 -0.018,0.5673 -3.685,0.5572 -3.6667,-0.01 -5.0084,-0.2689 -2.9817,-0.5754 z m -209.3263,-1.3005 c 1.2973,-0.3381 3.0973,-0.3158 4,0.049 0.9028,0.3652 -0.1587,0.6418 -2.3587,0.6146 -2.2,-0.027 -2.9385,-0.326 -1.6413,-0.664 z m 240.6569,-0.019 c 1.6585,-0.319 4.0585,-0.3069 5.3333,0.027 1.2748,0.3337 -0.082,0.5946 -3.0155,0.5798 -2.9334,-0.015 -3.9764,-0.2878 -2.3178,-0.6067 z m -259.3235,-1.3144 c 1.2973,-0.338 3.0973,-0.3158 4,0.05 0.9027,0.3652 -0.1587,0.6418 -2.3587,0.6146 -2.2,-0.027 -2.9386,-0.326 -1.6413,-0.6641 z m 285.9901,-0.019 c 1.6586,-0.3189 4.0586,-0.3068 5.3334,0.027 1.2748,0.3337 -0.082,0.5947 -3.0156,0.5799 -2.9333,-0.015 -3.9763,-0.2879 -2.3178,-0.6068 z m -305.9901,-1.3143 c 1.2973,-0.338 3.0973,-0.3158 4,0.049 0.9027,0.3652 -0.1587,0.6418 -2.3587,0.6147 -2.2,-0.027 -2.9386,-0.326 -1.6413,-0.6641 z M 1345,1627.117 c 0.9167,-0.3699 2.4167,-0.3699 3.3333,0 0.9167,0.3698 0.1667,0.6725 -1.6666,0.6725 -1.8334,0 -2.5834,-0.3027 -1.6667,-0.6725 z m -348,-1.3334 c 0.91667,-0.3699 2.41667,-0.3699 3.3333,0 0.9167,0.3699 0.1667,0.6725 -1.66663,0.6725 -1.83334,0 -2.58334,-0.3026 -1.66667,-0.6725 z m 361.4167,-0.028 c 0.9625,-0.3851 2.1125,-0.3377 2.5555,0.1053 0.4431,0.4431 -0.3444,0.7582 -1.75,0.7003 -1.5532,-0.064 -1.8692,-0.3799 -0.8055,-0.8056 z M 983.75,1624.4225 c 0.9625,-0.3851 2.1125,-0.3378 2.55556,0.1053 0.44305,0.443 -0.34445,0.7582 -1.75,0.7003 -1.55326,-0.064 -1.8692,-0.38 -0.80556,-0.8056 z m 386.5833,0.028 c 0.9167,-0.3699 2.4167,-0.3699 3.3334,0 0.9166,0.3699 0.1666,0.6725 -1.6667,0.6725 -1.8333,0 -2.5833,-0.3026 -1.6667,-0.6725 z m -401.24997,-1.3611 c 0.9625,-0.3852 2.1125,-0.3378 2.55556,0.1052 0.44305,0.4431 -0.34445,0.7582 -1.75,0.7003 -1.55326,-0.064 -1.8692,-0.3799 -0.80556,-0.8055 z m 414.66667,0 c 0.9625,-0.3852 2.1125,-0.3378 2.5556,0.1052 0.443,0.4431 -0.3445,0.7582 -1.75,0.7003 -1.5533,-0.064 -1.8692,-0.3799 -0.8056,-0.8055 z m 12,-1.3334 c 0.9625,-0.3851 2.1125,-0.3377 2.5556,0.1053 0.443,0.4431 -0.3445,0.7582 -1.75,0.7003 -1.5533,-0.064 -1.8692,-0.3799 -0.8056,-0.8056 z m 12,-1.3333 c 0.9625,-0.3851 2.1125,-0.3378 2.5556,0.1053 0.443,0.443 -0.3445,0.7582 -1.75,0.7003 -1.5533,-0.064 -1.8692,-0.38 -0.8056,-0.8056 z m 12,-1.3333 c 0.9625,-0.3852 2.1125,-0.3378 2.5556,0.1052 0.443,0.4431 -0.3445,0.7582 -1.75,0.7003 -1.5533,-0.064 -1.8692,-0.3799 -0.8056,-0.8055 z m 12,-1.3334 c 0.9625,-0.3851 2.1125,-0.3377 2.5556,0.1053 0.443,0.4431 -0.3445,0.7582 -1.75,0.7003 -1.5533,-0.064 -1.8692,-0.3799 -0.8056,-0.8056 z m 12,-1.3333 c 0.9625,-0.3851 2.1125,-0.3378 2.5556,0.1053 0.443,0.443 -0.3445,0.7582 -1.75,0.7003 -1.5533,-0.064 -1.8692,-0.38 -0.8056,-0.8056 z m 12,-1.3333 c 0.9625,-0.3852 2.1125,-0.3378 2.5556,0.1052 0.443,0.4431 -0.3445,0.7582 -1.75,0.7003 -1.5533,-0.064 -1.8692,-0.3799 -0.8056,-0.8055 z m 10.6667,-1.3334 c 0.9625,-0.3851 2.1125,-0.3377 2.5555,0.1053 0.4431,0.4431 -0.3444,0.7582 -1.75,0.7003 -1.5532,-0.064 -1.8692,-0.3799 -0.8055,-0.8056 z m -1295.53951,-3.0891 c 0,-1.8334 0.30263,-2.5834 0.67252,-1.6667 0.36988,0.9167 0.36988,2.4167 0,3.3333 -0.36989,0.9167 -0.67252,0.1667 -0.67252,-1.6666 z m 1307.53951,1.7558 c 0.9625,-0.3851 2.1125,-0.3378 2.5555,0.1053 0.4431,0.443 -0.3444,0.7582 -1.75,0.7003 -1.5532,-0.064 -1.8692,-0.38 -0.8055,-0.8056 z m 10.6666,-1.3333 c 0.9625,-0.3852 2.1125,-0.3378 2.5556,0.1052 0.443,0.4431 -0.3445,0.7582 -1.75,0.7003 -1.5533,-0.064 -1.8692,-0.3799 -0.8056,-0.8055 z M 867.75,1608.4225 c 0.9625,-0.3851 2.1125,-0.3378 2.55556,0.1053 0.44305,0.443 -0.34445,0.7582 -1.75,0.7003 -1.55326,-0.064 -1.8692,-0.38 -0.80556,-0.8056 z m 665.3333,-2.6667 c 0.9625,-0.3851 2.1125,-0.3377 2.5556,0.1053 0.443,0.4431 -0.3445,0.7582 -1.75,0.7003 -1.5533,-0.064 -1.8692,-0.3799 -0.8056,-0.8056 z m 10.6667,-1.3333 c 0.9625,-0.3851 2.1125,-0.3378 2.5556,0.1053 0.443,0.443 -0.3445,0.7582 -1.75,0.7003 -1.5533,-0.064 -1.8692,-0.38 -0.8056,-0.8056 z M 169.54386,1596 c 0,-1.8333 0.30263,-2.5833 0.67251,-1.6667 0.36989,0.9167 0.36989,2.4167 0,3.3334 -0.36988,0.9166 -0.67251,0.1666 -0.67251,-1.6667 z m -1.4386,-15.4444 c 0.064,-1.5533 0.37992,-1.8692 0.80556,-0.8056 0.38516,0.9625 0.33779,2.1125 -0.10526,2.5556 -0.44306,0.443 -0.75819,-0.3445 -0.7003,-1.75 z m -1.22807,-15.2223 c 0,-1.8333 0.30263,-2.5833 0.67252,-1.6666 0.36988,0.9166 0.36988,2.4166 0,3.3333 -0.36989,0.9167 -0.67252,0.1667 -0.67252,-1.6667 z m -1.23452,-34.6666 c 0,-2.5667 0.27439,-3.6167 0.60976,-2.3334 0.33537,1.2834 0.33537,3.3834 0,4.6667 -0.33537,1.2833 -0.60976,0.2333 -0.60976,-2.3333 z m 0.19489,-45.3334 c 0,-8.4333 0.21649,-11.8833 0.48109,-7.6666 0.2646,4.2166 0.2646,11.1166 0,15.3333 -0.2646,4.2167 -0.48109,0.7667 -0.48109,-7.6667 z M 2872,1459.4966 c 0,-0.2769 1.05,-1.3269 2.3333,-2.3333 2.1148,-1.6585 2.1619,-1.6114 0.5034,0.5034 -1.7418,2.221 -2.8367,2.9273 -2.8367,1.8299 z M 480.53998,1442.3333 c -2.53998,-3 -2.53998,-3 0.46002,-0.46 2.81926,2.387 3.60699,3.46 2.53998,3.46 -0.25301,0 -1.60301,-1.35 -3,-3 z m 2452.79332,-34.8367 c 0,-0.2769 1.05,-1.3269 2.3334,-2.3333 2.1147,-1.6585 2.1619,-1.6114 0.5034,0.5034 -1.7419,2.221 -2.8368,2.9273 -2.8368,1.8299 z m 44,-37.3333 c 0,-0.2769 1.05,-1.3269 2.3334,-2.3334 2.1147,-1.6585 2.1619,-1.6113 0.5034,0.5034 -1.7419,2.221 -2.8368,2.9273 -2.8368,1.83 z M 437.4386,1353.8889 c 0.064,-1.5533 0.37992,-1.8692 0.80555,-0.8056 0.38516,0.9625 0.33779,2.1125 -0.10526,2.5556 -0.44306,0.443 -0.75819,-0.3445 -0.70029,-1.75 z m -190.77193,-62.3923 c 0,-0.2769 1.05,-1.3269 2.33333,-2.3333 2.11474,-1.6585 2.1619,-1.6114 0.50341,0.5034 -1.74183,2.221 -2.83674,2.9273 -2.83674,1.8299 z m 8,-9.3333 c 0,-0.2769 1.05,-1.3269 2.33333,-2.3334 2.11474,-1.6585 2.1619,-1.6113 0.50341,0.5034 -1.74183,2.221 -2.83674,2.9273 -2.83674,1.83 z m 14.66666,-17.3334 c 0,-0.2768 1.05,-1.3268 2.33334,-2.3333 2.11474,-1.6585 2.1619,-1.6113 0.5034,0.5034 -1.74182,2.221 -2.83674,2.9273 -2.83674,1.8299 z m 31.33334,-31.4966 c 2.86432,-2.9333 5.50786,-5.3333 5.87452,-5.3333 0.36667,0 -1.67687,2.4 -4.54119,5.3333 -2.86432,2.9334 -5.50786,5.3334 -5.87453,5.3334 -0.36666,0 1.67687,-2.4 4.5412,-5.3334 z m 31.33333,-30 c 3.98323,-4.0333 7.54224,-7.3333 7.90891,-7.3333 0.36666,0 -2.59234,3.3 -6.57558,7.3333 -3.98323,4.0334 -7.54224,7.3334 -7.9089,7.3334 -0.36667,0 2.59234,-3.3 6.57557,-7.3334 z m 196,-45.0838 c 0,-0.2295 1.95,-2.1795 4.33333,-4.3334 4.33334,-3.9161 4.33334,-3.9161 0.41722,0.4172 -3.65038,4.0393 -4.75055,4.9462 -4.75055,3.9162 z m 21.33333,-21.4196 c 0,-0.2768 1.05,-1.3268 2.33334,-2.3333 2.11474,-1.6585 2.1619,-1.6113 0.5034,0.5034 -1.74182,2.221 -2.83674,2.9273 -2.83674,1.8299 z M 562,1125.3333 c 1.32732,-1.4666 2.7133,-2.6666 3.07997,-2.6666 0.36666,0 -0.41932,1.2 -1.74664,2.6666 -1.32731,1.4667 -2.7133,2.6667 -3.07996,2.6667 -0.36667,0 0.41931,-1.2 1.74663,-2.6667 z m 10,-8.5034 c 0,-0.2768 1.05,-1.3268 2.33333,-2.3333 2.11474,-1.6585 2.1619,-1.6113 0.50341,0.5034 -1.74183,2.221 -2.83674,2.9273 -2.83674,1.8299 z m 9.33333,-8 c 0,-0.2768 1.05,-1.3268 2.33334,-2.3333 2.11474,-1.6585 2.1619,-1.6113 0.5034,0.5034 -1.74182,2.221 -2.83674,2.9273 -2.83674,1.8299 z M 2718,1097.3333 c 3.6115,-3.6666 6.8664,-6.6666 7.2331,-6.6666 0.3667,0 -2.2882,3 -5.8998,6.6666 -3.6115,3.6667 -6.8664,6.6667 -7.2331,6.6667 -0.3666,0 2.2883,-3 5.8998,-6.6667 z M 2740,1074 c 1.7223,-1.8333 3.4315,-3.3333 3.7982,-3.3333 0.3666,0 -0.7425,1.5 -2.4649,3.3333 -1.7223,1.8333 -3.4315,3.3333 -3.7981,3.3333 -0.3667,0 0.7425,-1.5 2.4648,-3.3333 z m 14.6667,-16 c 1.7223,-1.8333 3.4315,-3.3333 3.7981,-3.3333 0.3667,0 -0.7425,1.5 -2.4648,3.3333 -1.7223,1.8333 -3.4315,3.3333 -3.7982,3.3333 -0.3666,0 0.7425,-1.5 2.4649,-3.3333 z m 14.6666,-16 c 1.7224,-1.8333 3.4315,-3.3333 3.7982,-3.3333 0.3667,0 -0.7425,1.5 -2.4648,3.3333 -1.7224,1.8333 -3.4315,3.3333 -3.7982,3.3333 -0.3667,0 0.7425,-1.5 2.4648,-3.3333 z m 442.9266,-73.33333 c 0.027,-2.2 0.326,-2.93858 0.6641,-1.64129 0.338,1.29729 0.3158,3.09729 -0.049,4 -0.3652,0.90271 -0.6418,-0.15871 -0.6147,-2.35871 z m 1.3828,-23.33334 c 0,-2.56666 0.2744,-3.61666 0.6097,-2.33333 0.3354,1.28333 0.3354,3.38333 0,4.66667 -0.3353,1.28333 -0.6097,0.23333 -0.6097,-2.33334 z M 838.77193,932.55556 c 0.064,-1.55326 0.37992,-1.8692 0.80556,-0.80556 0.38516,0.9625 0.33779,2.1125 -0.10527,2.55556 -0.44305,0.44305 -0.75818,-0.34445 -0.70029,-1.75 z M 3214.976,922.66667 c 0,-2.56667 0.2744,-3.61667 0.6098,-2.33334 0.3353,1.28334 0.3353,3.38334 0,4.66667 -0.3354,1.28333 -0.6098,0.23333 -0.6098,-2.33333 z M 3215.16,880 c 0,-7.7 0.2203,-10.85 0.4897,-7 0.2693,3.85 0.2693,10.15 0,14 -0.2694,3.85 -0.4897,0.7 -0.4897,-7 z m -332.2828,-22.66667 c 0,-1.83333 0.3026,-2.58333 0.6725,-1.66666 0.3699,0.91666 0.3699,2.41666 0,3.33333 -0.3699,0.91667 -0.6725,0.16667 -0.6725,-1.66667 z m 1.2281,-14.11111 c 0.064,-1.55326 0.3799,-1.8692 0.8055,-0.80555 0.3852,0.9625 0.3378,2.1125 -0.1052,2.55555 -0.4431,0.44306 -0.7582,-0.34444 -0.7003,-1.75 z m 1.4386,-13.88889 c 0,-1.83333 0.3026,-2.58333 0.6725,-1.66666 0.3699,0.91666 0.3699,2.41666 0,3.33333 -0.3699,0.91667 -0.6725,0.16667 -0.6725,-1.66667 z M 3212.3093,816 c 0,-2.56667 0.2744,-3.61667 0.6098,-2.33333 0.3354,1.28333 0.3354,3.38333 0,4.66666 -0.3354,1.28334 -0.6098,0.23334 -0.6098,-2.33333 z m -325.5374,-0.77778 c 0.064,-1.55326 0.38,-1.8692 0.8056,-0.80555 0.3851,0.9625 0.3378,2.1125 -0.1053,2.55555 -0.443,0.44306 -0.7582,-0.34444 -0.7003,-1.75 z m 0.2579,-12.55555 c 0,-3.3 0.26,-4.65 0.5778,-3 0.3178,1.65 0.3178,4.35 0,6 -0.3178,1.65 -0.5778,0.3 -0.5778,-3 z m 323.8474,-8 c 0,-1.83334 0.3026,-2.58334 0.6725,-1.66667 0.3699,0.91667 0.3699,2.41667 0,3.33333 -0.3699,0.91667 -0.6725,0.16667 -0.6725,-1.66666 z m -325.1807,-21.33334 c 0,-3.3 0.26,-4.65 0.5778,-3 0.3178,1.65 0.3178,4.35 0,6 -0.3178,1.65 -0.5778,0.3 -0.5778,-3 z M 3148.54,637 c -2.54,-3 -2.54,-3 0.46,-0.46002 2.8193,2.38696 3.607,3.46002 2.54,3.46002 -0.253,0 -1.603,-1.35 -3,-3 z m -13.3333,-14.66667 c -2.54,-3 -2.54,-3 0.46,-0.46001 2.8192,2.38695 3.607,3.46001 2.54,3.46001 -0.2531,0 -1.6031,-1.35 -3,-3 z m -309.3334,-8 c -2.54,-3 -2.54,-3 0.46,-0.46001 2.8193,2.38695 3.607,3.46001 2.54,3.46001 -0.253,0 -1.603,-1.35 -3,-3 z m 296,-6.66666 c -2.54,-3 -2.54,-3 0.46,-0.46002 2.8193,2.38696 3.607,3.46002 2.54,3.46002 -0.253,0 -1.603,-1.35 -3,-3 z m -306.6666,-5.33334 c -2.54,-3 -2.54,-3 0.46,-0.46001 2.8192,2.38695 3.607,3.46001 2.54,3.46001 -0.2531,0 -1.6031,-1.35 -3,-3 z m -10.6667,-12 c -2.54,-3 -2.54,-3 0.46,-0.46001 2.8193,2.38695 3.607,3.46001 2.54,3.46001 -0.253,0 -1.603,-1.35 -3,-3 z m -11.3076,-12.66666 C 2790,574 2790,574 2793.6667,577.23242 c 2.0166,1.77783 3.6666,3.42783 3.6666,3.66667 0,1.04569 -1.0797,0.19463 -4.1009,-3.23242 z m 286.7382,-12 C 3068.6667,554 3068.6667,554 3080.3333,565.3039 c 10.8357,10.49872 12.2741,12.02943 11.3039,12.02943 -0.1995,0 -5.4495,-5.25 -11.6666,-11.66666 z M 2560.3362,447.33333 c 0.015,-2.93333 0.2879,-3.97633 0.6068,-2.31778 0.3189,1.65855 0.3068,4.05855 -0.027,5.33333 -0.3337,1.27478 -0.5947,-0.0822 -0.5799,-3.01555 z M 2558.976,420 c 0,-2.56667 0.2744,-3.61667 0.6098,-2.33333 0.3353,1.28333 0.3353,3.38333 0,4.66666 -0.3354,1.28334 -0.6098,0.23334 -0.6098,-2.33333 z m 127.4407,-15.57749 c 0.9625,-0.38516 2.1125,-0.33779 2.5555,0.10527 0.4431,0.44305 -0.3444,0.75818 -1.75,0.70029 -1.5532,-0.064 -1.8692,-0.37992 -0.8055,-0.80556 z m -128.8728,-9.75584 c 0,-1.83334 0.3026,-2.58334 0.6725,-1.66667 0.3699,0.91667 0.3699,2.41667 0,3.33333 -0.3699,0.91667 -0.6725,0.16667 -0.6725,-1.66666 z m 31.5394,-4.91082 c 0.9625,-0.38516 2.1125,-0.33779 2.5556,0.10526 0.443,0.44306 -0.3445,0.75819 -1.75,0.70029 -1.5533,-0.064 -1.8692,-0.37992 -0.8056,-0.80555 z"
         id="path7" />
      <path
         style="fill:#eecb00"
         d="m 1576,2433.2999 c -28.9667,-2.8101 -74.2667,-8.1434 -100.6667,-11.8519 -41.5278,-5.8335 -53.2137,-8.0239 -86.6666,-16.2449 -42.8889,-10.5399 -92.7398,-27.1673 -147.0839,-49.0588 -27.675,-11.1484 -32.1398,-13.4483 -64,-32.9687 -97.6867,-59.8515 -133.3961,-85.5236 -172.014,-123.6638 -40.33999,-39.841 -101.34557,-118.2802 -112.07767,-144.1063 -10.5524,-25.3936 -11.01242,-23.121 4.29424,-21.2139 24.71949,3.0798 136.74713,9.7111 190.88133,11.2988 123.9948,3.6368 227.1555,-1.1434 348.1173,-16.1307 69.5993,-8.6235 60.8265,-7.1023 254.4611,-44.1229 116.479,-22.2694 167.5788,-34.3327 259.8086,-61.3337 90.7248,-26.5605 146.2299,-44.9028 212.2796,-70.1502 132.0249,-50.4664 202.116,-81.8206 304,-135.9897 23.4667,-12.4767 53.9167,-28.5203 67.6667,-35.6525 l 25,-12.9678 v 25.7619 c 0.01,59.6326 -13.4305,136.595 -34.649,198.4285 -12.1129,35.2986 -28.1538,70.8762 -49.295,109.3334 -28.8218,52.4286 -77.2192,115.708 -138.3448,180.8851 -23.5096,25.0679 -32.469,33.473 -59.0481,55.3949 -19.2511,15.8779 -44.8229,35.1977 -66.3161,50.1025 -33.7789,23.4244 -36.5548,25.0456 -80.6667,47.1107 -36.5448,18.2799 -53.4891,25.8609 -84.7001,37.8954 -35.264,13.5972 -43.7271,16.2697 -88,27.7894 -45.9818,11.9642 -51.5987,13.1146 -91.6505,18.7694 -23.4666,3.3133 -62.4666,8.0848 -86.6666,10.6034 -38.2789,3.9838 -50.4146,4.6871 -93.3334,5.4085 -27.1333,0.4561 -51.4333,1.0439 -54,1.3062 -2.5666,0.2623 -28.3666,-1.8222 -57.3333,-4.6323 z M 1085.3333,1627.779 c -74.1889,-4.3538 -128.43279,-9.6373 -183.3333,-17.8571 -34.65354,-5.1884 -51.40411,-8.2311 -53,-9.6272 -2.21581,-1.9385 -2.33333,-32.5918 -2.33333,-608.60319 0,-606.56185 0,-606.56185 4.8201,-626.79335 4.04551,-16.98033 6.38485,-23.49444 14.55734,-40.53635 22.14351,-46.17534 57.73147,-86.81919 101.87992,-116.35374 23.55551,-15.75822 59.53497,-30.81916 91.02687,-38.10366 21.7158,-5.02314 21.7158,-5.02314 54.3824,-5.08138 41.0908,-0.0733 52.6886,1.40714 74.6667,9.53084 33.7821,12.48677 77.9263,44.28448 115.467,83.17265 24.8668,25.75932 44.2968,61.42615 57.9296,106.33893 7.9329,26.13455 7.9329,26.13455 7.9348,638.92785 0,604.8468 -0.032,612.8238 -2.5855,615.135 -2.2611,2.0462 -9.0307,2.6556 -53.6667,4.8306 -28.0935,1.3689 -68.4792,3.3849 -89.7459,4.4799 -61.2555,3.154 -91.4476,3.2722 -138,0.5402 z M 2044,909.60842 C 2044.6667,346 2044.6667,346 2048.9064,336.37699 c 10.4083,-23.62414 31.0815,-58.57219 43.6025,-73.71032 8.7713,-10.60454 39.3389,-38.50956 52.8244,-48.22307 37.3397,-26.89552 73.4832,-41.72834 120.701,-49.53419 25.7699,-4.26018 27.3448,-4.36705 48.6324,-3.30019 37.7397,1.89138 66.2432,9.59333 89.3333,24.13883 30.4531,19.18375 40.5792,27.12508 59.6047,46.74443 25.2409,26.02882 41.1537,49.15261 65.2653,94.84085 11.439,21.67544 12.1216,23.45382 15.6087,40.66667 3.6466,18 3.6466,18 3.2506,438.47267 l -0.396,420.47263 -70.212,38.3784 c -38.6166,21.1081 -103.5123,57.03 -144.2127,79.8263 -70.7992,39.6547 -75.9817,42.3075 -119.788,61.3169 -53.8014,23.3467 -146.9035,61.1839 -156.4539,63.5838 -3.6667,0.9213 -8.1667,2.0106 -10,2.4207 -3.3334,0.7454 -3.3334,0.7454 -2.6667,-562.86298 z"
         id="path6" />
      <path
         style="fill:#8678a6"
         d="m 1184.3587,2039.076 c 1.2973,-0.338 3.0973,-0.3158 4,0.049 0.9027,0.3652 -0.1587,0.6418 -2.3587,0.6147 -2.2,-0.027 -2.9386,-0.326 -1.6413,-0.6641 z m -76,-1.3333 c 1.2973,-0.3381 3.0973,-0.3158 4,0.049 0.9027,0.3652 -0.1587,0.6418 -2.3587,0.6146 -2.2,-0.027 -2.9386,-0.326 -1.6413,-0.664 z m -119.27537,-3.9869 c 0.9625,-0.3851 2.1125,-0.3377 2.55556,0.1053 0.44305,0.4431 -0.34445,0.7582 -1.75,0.7003 -1.55326,-0.064 -1.8692,-0.3799 -0.80556,-0.8056 z m -100,-5.3333 c 0.9625,-0.3851 2.1125,-0.3378 2.55556,0.1053 0.44305,0.443 -0.34445,0.7582 -1.75,0.7003 -1.55326,-0.064 -1.8692,-0.38 -0.80556,-0.8056 z M 270.66667,1802 c -3.23871,-3.3 -5.58856,-6 -5.22189,-6 0.36667,0 3.31651,2.7 6.55522,6 3.23871,3.3 5.58855,6 5.22189,6 -0.36667,0 -3.31652,-2.7 -6.55522,-6 z m 873.00003,-168.2164 c 0.9166,-0.3699 2.4166,-0.3699 3.3333,0 0.9167,0.3699 0.1667,0.6725 -1.6667,0.6725 -1.8333,0 -2.5833,-0.3026 -1.6666,-0.6725 z m 52.0833,-0.028 c 0.9625,-0.3851 2.1125,-0.3377 2.5556,0.1053 0.443,0.4431 -0.3445,0.7582 -1.75,0.7003 -1.5533,-0.064 -1.8692,-0.3799 -0.8056,-0.8056 z m -94.6667,-1.3333 c 0.9625,-0.3851 2.1125,-0.3378 2.5556,0.1053 0.443,0.443 -0.3445,0.7582 -1.75,0.7003 -1.5533,-0.064 -1.8692,-0.38 -0.8056,-0.8056 z m 131.9167,0.028 c 0.9167,-0.3699 2.4167,-0.3699 3.3333,0 0.9167,0.3699 0.1667,0.6725 -1.6666,0.6725 -1.8334,0 -2.5834,-0.3026 -1.6667,-0.6725 z m 40.0833,-1.3611 c 0.9625,-0.3852 2.1125,-0.3378 2.5556,0.1052 0.443,0.4431 -0.3445,0.7582 -1.75,0.7003 -1.5533,-0.064 -1.8692,-0.3799 -0.8056,-0.8055 z M 166.77193,1557.8889 c 0.064,-1.5533 0.37992,-1.8692 0.80556,-0.8056 0.38516,0.9625 0.33779,2.1125 -0.10527,2.5556 -0.44305,0.443 -0.75818,-0.3445 -0.70029,-1.75 z m -1.10235,-53.2222 c 0.0148,-2.9334 0.28784,-3.9764 0.60677,-2.3178 0.31892,1.6585 0.30681,4.0585 -0.0269,5.3333 -0.33372,1.2748 -0.59466,-0.082 -0.57986,-3.0155 z m 330.96133,-45 C 487.33333,1450 487.33333,1450 497,1459.2976 c 5.31667,5.1136 9.66667,9.4636 9.66667,9.6666 0,0.978 -1.40017,-0.3191 -10.03576,-9.2975 z M 292,1242.1633 c 0,-0.2769 1.05,-1.3269 2.33333,-2.3334 2.11474,-1.6585 2.1619,-1.6113 0.50341,0.5034 -1.74183,2.221 -2.83674,2.9273 -2.83674,1.83 z m 30,-28.83 c 1.32732,-1.4666 2.7133,-2.6666 3.07997,-2.6666 0.36666,0 -0.41932,1.2 -1.74664,2.6666 -1.32731,1.4667 -2.7133,2.6667 -3.07996,2.6667 -0.36667,0 0.41931,-1.2 1.74663,-2.6667 z m 2406,-126 c 1.7223,-1.8333 3.4315,-3.3333 3.7982,-3.3333 0.3666,0 -0.7425,1.5 -2.4649,3.3333 -1.7223,1.8334 -3.4315,3.3334 -3.7981,3.3334 -0.3667,0 0.7425,-1.5 2.4648,-3.3334 z m 486.976,-189.99997 c 0,-2.56666 0.2744,-3.61666 0.6098,-2.33333 0.3353,1.28333 0.3353,3.38333 0,4.66667 -0.3354,1.28333 -0.6098,0.23333 -0.6098,-2.33334 z M 3097.9499,583.66667 c -6.6166,-7 -6.6166,-7 0.3834,-0.38346 3.85,3.6391 7,6.7891 7,7 0,0.99492 -1.2352,-0.11202 -7.3834,-6.61654 z"
         id="path5" />
      <path
         style="fill:#6d5899"
         d="m 1191.6822,2039.057 c 1.6586,-0.3189 4.0586,-0.3068 5.3333,0.027 1.2748,0.3337 -0.082,0.5947 -3.0155,0.5799 -2.9333,-0.015 -3.9763,-0.2879 -2.3178,-0.6068 z M 1115,2037.7476 c 1.2833,-0.3354 3.3833,-0.3354 4.6667,0 1.2833,0.3353 0.2333,0.6097 -2.3334,0.6097 -2.5666,0 -3.6166,-0.2744 -2.3333,-0.6097 z m 24.75,-403.9918 c 0.9625,-0.3851 2.1125,-0.3377 2.5556,0.1053 0.443,0.4431 -0.3445,0.7582 -1.75,0.7003 -1.5533,-0.064 -1.8692,-0.3799 -0.8056,-0.8056 z m -70.6667,-2.6666 c 0.9625,-0.3852 2.1125,-0.3378 2.5556,0.1052 0.443,0.4431 -0.3445,0.7582 -1.75,0.7003 -1.5533,-0.064 -1.8692,-0.3799 -0.8056,-0.8055 z M 165.64267,1513.3333 c 0,-2.5666 0.27439,-3.6166 0.60976,-2.3333 0.33537,1.2833 0.33537,3.3833 0,4.6667 -0.33537,1.2833 -0.60976,0.2333 -0.60976,-2.3334 z M 284,1250.2495 c 0,-0.2295 1.95,-2.1795 4.33333,-4.3334 4.33334,-3.9161 4.33334,-3.9161 0.41722,0.4172 -3.65038,4.0393 -4.75055,4.9462 -4.75055,3.9162 z m 28,-26.6667 c 0,-0.2295 1.95,-2.1795 4.33333,-4.3333 4.33334,-3.9162 4.33334,-3.9162 0.41722,0.4172 -3.65038,4.0392 -4.75055,4.9462 -4.75055,3.9161 z M 350.66667,1186 c 2.48771,-2.5667 4.82311,-4.6667 5.18977,-4.6667 0.36667,0 -1.36873,2.1 -3.85644,4.6667 -2.48771,2.5667 -4.82311,4.6667 -5.18978,4.6667 -0.36666,0 1.36874,-2.1 3.85645,-4.6667 z m 156,-6.6667 c 2.48771,-2.5666 4.82311,-4.6666 5.18977,-4.6666 0.36667,0 -1.36873,2.1 -3.85644,4.6666 -2.48771,2.5667 -4.82311,4.6667 -5.18978,4.6667 -0.36666,0 1.36874,-2.1 3.85645,-4.6667 z m 14.66666,-14.5034 c 0,-0.2768 1.05,-1.3268 2.33334,-2.3333 2.11474,-1.6585 2.1619,-1.6113 0.5034,0.5034 -1.74182,2.221 -2.83674,2.9273 -2.83674,1.8299 z m 17.33334,-18.6666 c 0,-0.2769 1.05,-1.3269 2.33333,-2.3334 2.11474,-1.6585 2.1619,-1.6113 0.50341,0.5034 -1.74183,2.221 -2.83674,2.9273 -2.83674,1.83 z M 2700,1116.6667 c 2.4877,-2.5667 4.8231,-4.6667 5.1898,-4.6667 0.3666,0 -1.3688,2.1 -3.8565,4.6667 -2.4877,2.5666 -4.8231,4.6666 -5.1897,4.6666 -0.3667,0 1.3687,-2.1 3.8564,-4.6666 z m 32,-33.1701 c 0,-0.2769 1.05,-1.3269 2.3333,-2.3333 2.1148,-1.6585 2.1619,-1.6114 0.5034,0.5034 -1.7418,2.221 -2.8367,2.9273 -2.8367,1.8299 z m 14.6667,-16 c 0,-0.2769 1.05,-1.3269 2.3333,-2.3333 2.1147,-1.6585 2.1619,-1.6114 0.5034,0.5034 -1.7418,2.221 -2.8367,2.9273 -2.8367,1.8299 z m 14.6666,-16 c 0,-0.2769 1.05,-1.3269 2.3334,-2.3333 2.1147,-1.6585 2.1619,-1.6114 0.5034,0.5034 -1.7419,2.221 -2.8368,2.9273 -2.8368,1.8299 z m 14.6667,-16 c 0,-0.2769 1.05,-1.3269 2.3333,-2.3333 2.1148,-1.6585 2.1619,-1.6114 0.5034,0.5034 -1.7418,2.221 -2.8367,2.9273 -2.8367,1.8299 z m 438.9266,-130.82993 c 0.027,-2.2 0.326,-2.93858 0.6641,-1.64129 0.338,1.29729 0.3158,3.09729 -0.05,4 -0.3652,0.90271 -0.6418,-0.15871 -0.6146,-2.35871 z m -60.43,-260.33334 c -1.6585,-2.11474 -1.6113,-2.1619 0.5034,-0.5034 2.221,1.74182 2.9273,2.83674 1.8299,2.83674 -0.2768,0 -1.3268,-1.05 -2.3333,-2.33334 z m -13.3333,-14.66666 c -1.6585,-2.11474 -1.6114,-2.1619 0.5034,-0.50341 2.221,1.74183 2.9273,2.83674 1.8299,2.83674 -0.2769,0 -1.3269,-1.05 -2.3333,-2.33333 z m -30.4966,-33 c -3.2387,-3.3 -5.5886,-6 -5.2219,-6 0.3666,0 3.3165,2.7 6.5552,6 3.2387,3.3 5.5886,6 5.2219,6 -0.3667,0 -3.3165,-2.7 -6.5552,-6 z"
         id="path4" />
      <path
         style="fill:#55308a"
         d="m 1084.6667,1910.5438 c -183.34508,-7.2338 -234.22707,-11.152 -346.00003,-26.6439 -122.91806,-17.0367 -194.25751,-32.4265 -290.22641,-62.6095 -24.13776,-7.5916 -34.5318,-11.7048 -56.66666,-22.4246 -52.28015,-25.3192 -101.80315,-58.2613 -127.88396,-85.067 -31.53293,-32.4093 -61.18549,-76.0521 -83.46487,-122.8441 -14.46938,-30.389 -13.62865,-25.3439 -13.71258,-82.288 -0.0617,-41.8903 1.01933,-50.6195 10.1411,-81.8845 21.5811,-73.9695 57.82076,-128.7154 132.91008,-200.7822 44.0904,-42.3157 48.02927,-45.8516 72.23663,-64.847 19.65669,-15.4246 55.08893,-40.0756 116,-80.7039 43.38471,-28.9381 99.07821,-60.8698 164.66667,-94.41124 34.1,-17.43848 66.2,-33.98157 71.33333,-36.76242 17.03013,-9.22563 73.53253,-33.12158 80.50295,-34.04624 10.7484,-1.42582 15.41286,0.0635 20.08145,6.41179 2.85177,3.87781 4.08227,7.06719 4.08227,10.58105 0,4.7561 -0.52716,5.38575 -9.67988,11.56195 -5.32394,3.59255 -36.67394,22.71522 -69.66667,42.49482 -77.34173,46.36739 -99.665,60.54849 -123.32012,78.34019 -42.46474,31.9389 -84.04338,67.8319 -106.66667,92.0806 -8.43333,9.0393 -17.27051,18.0223 -19.63818,19.9623 -6.8862,5.6423 -26.41785,30.1447 -35.87159,45.0009 -11.57113,18.1835 -19.08449,33.9569 -26.37424,55.3694 -8.14828,23.9344 -10.11599,35.3144 -10.11599,58.5046 0,36.3793 7.66321,58.9037 31.27775,91.9342 40.63832,56.8424 119.22699,104.0287 234.04495,140.5256 42.44664,13.4924 71.09224,21.2674 98.42148,26.7137 15.17404,3.0239 34.48916,7.2012 42.92249,9.2829 22.29969,5.5045 99.37681,17.307 135.19573,20.7021 81.29967,7.7058 170.50387,10.9819 238.80427,8.7701 70.8832,-2.2954 122.8321,-5.0861 152.6667,-8.2012 33.6598,-3.5145 134.8726,-15.1719 160.8009,-18.5207 21.3779,-2.761 23.4265,-3.1227 141.1991,-24.9281 125.5885,-23.2525 194.8816,-41.81 323.3333,-86.5925 26.0333,-9.0761 59.0333,-20.168 73.3333,-24.6487 27.2792,-8.5475 50.7956,-17.8847 133.6334,-53.0591 45.452,-19.2998 57.0944,-24.9547 120.7964,-58.673 96.9548,-51.3194 165.1119,-89.1405 212.8919,-118.1359 35.3306,-21.4404 44.8988,-28.0211 76.2075,-52.4131 61.0772,-47.584 81.1912,-64.58 101.8972,-86.1016 59.0143,-61.3387 87.6584,-96.0143 123.6064,-149.63371 14.7799,-22.04539 17.4067,-26.95256 30.6909,-57.33333 C 2883.5845,862 2883.5845,862 2885.9351,835.33333 c 2.0319,-23.05207 2.1511,-30.54279 0.8798,-55.26275 -1.3045,-25.36598 -2.0689,-31.2397 -6.7674,-52 -4.4311,-19.57867 -6.8997,-27.10866 -15.1038,-46.07058 -14.7421,-34.0732 -30.8169,-59.68857 -53.561,-85.34974 -16.1433,-18.21386 -21.2005,-22.86253 -44.2135,-40.64198 -25.9852,-20.07574 -25.9852,-20.07574 -73.5772,-43.83612 -51.4261,-25.67458 -60.9046,-29.28945 -103.4619,-39.45817 -30.5749,-7.30559 -28.0128,-3.43133 -30.005,-45.37243 -1.6815,-35.40013 -1.6815,-35.40013 1.43,-37.99089 2.116,-1.76186 4.3913,-2.38769 7.1116,-1.95607 2.2,0.34908 24.7,3.65958 50,7.35666 122.0267,17.83172 166.6107,27.02649 226,46.60906 22,7.25412 56.9274,19.73346 77.6165,27.73188 33.7234,13.03752 40.614,16.24786 66.58,31.01959 53.7053,30.55234 94.2163,64.81606 150.8732,127.60668 19.3864,21.48513 19.7808,22.04854 36.7121,52.4391 17.1152,30.72062 17.1152,30.72062 25.0817,63.61486 7.4927,30.93799 8.0738,34.51978 9.7707,60.22757 2.2706,34.39825 1.1408,55.18884 -4.3892,80.76837 -13.5623,62.73384 -31.7079,112.64099 -58.1367,159.89833 -23.4077,41.8553 -46.9988,77.2397 -67.9551,101.9264 -26.6418,31.3842 -63.3367,68.0646 -99.2856,99.2464 -33.9103,29.4134 -63.632,51.3437 -164.6589,121.4938 -62.0701,43.0998 -182.9736,119.9695 -240.2087,152.7234 -13.2,7.5539 -25.2,15.0482 -26.6667,16.6539 -3.5821,3.9217 -37.7427,21.8834 -114.6667,60.292 -110.218,55.0324 -167.0943,81.9825 -201.3333,95.3989 -17.6,6.8965 -44.6,17.5059 -60,23.5763 -62.3303,24.5697 -156.7724,56.8513 -232,79.3006 -83.334,24.8685 -120.5175,34.4857 -198.4668,51.3316 -99.8212,21.5727 -146.3074,29.6784 -226.0557,39.4166 -88.2415,10.7753 -149.9047,16.7129 -227.7699,21.9321 -54.0677,3.6241 -66.3878,4.0204 -119.3333,3.8393 -32.4725,-0.1112 -71.041,-0.6755 -85.7076,-1.2542 z M 3214.7719,909.88889 c 0.064,-1.55326 0.38,-1.8692 0.8056,-0.80556 0.3851,0.9625 0.3378,2.1125 -0.1053,2.55556 -0.443,0.44305 -0.7582,-0.34445 -0.7003,-1.75 z"
         id="path3" />
      <path
         style="fill:#42008a"
         d="m 1114,2037.7918 c -64.359,-1.2191 -105.6522,-2.7719 -168,-6.3176 -80.60335,-4.584 -84.31399,-4.9163 -148.66667,-13.316 -66,-8.6147 -66,-8.6147 -126.66666,-24.5457 -55.6033,-14.6013 -66.06389,-17.8295 -125.33334,-38.678 -64.66666,-22.747 -64.66666,-22.747 -136,-61.2055 C 338,1855.2706 338,1855.2706 310.66667,1834.1573 c -19.63136,-15.164 -33.84967,-27.5534 -50.45897,-43.9686 -21.74871,-21.4945 -24.16273,-24.4009 -40.54368,-48.8121 -14.99278,-22.3425 -19.03389,-29.5829 -29.02285,-52 -11.60481,-26.0433 -11.60481,-26.0433 -15.06251,-50.0433 -3.79988,-26.3751 -8.23483,-73.7882 -7.01605,-75.007 0.4239,-0.4239 0.77084,0.079 0.77099,1.1181 3.8e-4,2.7378 18.27982,41.0745 27.33626,57.3312 16.59448,29.7879 44.79679,67.977 67.21978,91.0232 26.08081,26.8057 75.60381,59.7478 127.88396,85.067 22.13486,10.7198 32.5289,14.833 56.66666,22.4246 110.86636,34.8684 200.73429,52.6153 367.55974,72.5846 77.05559,9.2237 253.5981,18.0792 361.041,18.11 85.8782,0.025 197.1151,-8.4572 340.4365,-25.9584 79.7483,-9.7382 126.2345,-17.8439 226.0557,-39.4166 77.9493,-16.8459 115.1328,-26.4631 198.4668,-51.3316 75.2276,-22.4493 169.6697,-54.7309 232,-79.3006 15.4,-6.0704 42.4,-16.6798 60,-23.5763 34.239,-13.4164 91.1153,-40.3665 201.3333,-95.3989 76.924,-38.4086 111.0846,-56.3703 114.6667,-60.292 1.4667,-1.6057 13.4667,-9.1 26.6667,-16.6539 57.2351,-32.7539 178.1386,-109.6236 240.2087,-152.7234 101.0269,-70.1501 130.7486,-92.0804 164.6589,-121.4938 35.9489,-31.1818 72.6438,-67.8622 99.2856,-99.2464 20.9563,-24.6867 44.5474,-60.0711 67.9551,-101.9264 26.9942,-48.26821 45.3122,-99.15183 58.685,-163.01466 2.7241,-13.00942 4.5459,-25.54182 4.5547,-31.33333 0.01,-5.30862 0.458,-12.05204 1,-14.98538 2.2267,-12.05249 2.341,76.63805 0.1459,113.17209 -2.1727,36.16125 -2.1727,36.16125 -15.5398,82.16128 -13.3671,46 -13.3671,46 -51.7259,119.3333 -38.3587,73.3333 -38.3587,73.3333 -94.219,138.5466 -55.8603,65.2132 -55.8603,65.2132 -139.4348,136.0929 -83.5744,70.8797 -83.5744,70.8797 -168.3286,125.5816 -83.7386,54.0465 -85.4403,55.0622 -142,84.7624 -31.4852,16.5332 -81.5458,43.0671 -111.2458,58.9643 -47.7635,25.5657 -66.2422,34.4529 -160,76.9508 -106,48.047 -106,48.047 -231.3334,92.5014 -125.3333,44.4545 -125.3333,44.4545 -274.6666,79.9517 -176.5208,41.9598 -218.925,50.3255 -358,70.6275 -86,12.5542 -86,12.5542 -172,18.6027 -47.3,3.3267 -88.1,6.2235 -90.6667,6.4374 -2.5667,0.2139 -43.0667,-0.3385 -90,-1.2275 z"
         id="path2" />
    </g>
  </g>
</svg>
